<?xml version="1.0" encoding="UTF-8" standalone="no"?>
<!-- Generator: Adobe Illustrator 16.0.0, SVG Export Plug-In . SVG Version: 6.00 Build 0)  -->

<svg
   xmlns:dc="http://purl.org/dc/elements/1.1/"
   xmlns:cc="http://creativecommons.org/ns#"
   xmlns:rdf="http://www.w3.org/1999/02/22-rdf-syntax-ns#"
   xmlns:svg="http://www.w3.org/2000/svg"
   xmlns="http://www.w3.org/2000/svg"
   xmlns:sodipodi="http://sodipodi.sourceforge.net/DTD/sodipodi-0.dtd"
   xmlns:inkscape="http://www.inkscape.org/namespaces/inkscape"
   version="1.1"
   id="Layer_1"
   x="0px"
   y="0px"
   width="426.74817"
   height="550.52234"
   viewBox="0 0 426.74817 550.52234"
   xml:space="preserve"
   inkscape:version="0.48.5 r10040"
   sodipodi:docname="visualiser.svg"><metadata
     id="metadata9"><rdf:RDF><cc:Work
         rdf:about=""><dc:format>image/svg+xml</dc:format><dc:type
           rdf:resource="http://purl.org/dc/dcmitype/StillImage" /></cc:Work></rdf:RDF></metadata><defs
     id="defs7" /><sodipodi:namedview
     pagecolor="#ffffff"
     bordercolor="#666666"
     borderopacity="1"
     objecttolerance="10"
     gridtolerance="10"
     guidetolerance="10"
     inkscape:pageopacity="0"
     inkscape:pageshadow="2"
     inkscape:window-width="924"
     inkscape:window-height="689"
     id="namedview5"
     showgrid="false"
     fit-margin-top="0"
     fit-margin-left="0"
     fit-margin-right="0"
     fit-margin-bottom="0"
     inkscape:zoom="0.30729167"
     inkscape:cx="207.73128"
     inkscape:cy="275.26308"
     inkscape:window-x="0"
     inkscape:window-y="0"
     inkscape:window-maximized="0"
     inkscape:current-layer="Layer_1" /><path
     style="fill:#ffffff;fill-rule:evenodd"
     d="m 133.89828,330.60624 -26.87,-136.008 h 9.478 l 5.135,-1.969 v 11.08 c 0,0 1.196,7.103 8.705,7.103 0,0 -4.344,10.675 0,13.049 l 11.465,106.745 h -7.913 z m 286.609,114.639 -232.445,-22.546 c 0,0 7.123,-10.27 3.957,-17.777 0,0 -1.197,-10.289 -10.289,-9.884 0,0 -1.583,-11.08 -12.644,-11.466 l -7.122,-54.164 h -4.344 l -11.465,-104.756 152.995,15.81 c 0,0 23.318,-3.958 25.691,-12.644 0,0 10.675,-17.006 4.749,-38.354 0,0 -3.166,-6.312 -7.508,-6.312 l -167.628,-15.829 c 0,0 -3.165,-1.969 -11.466,7.914 h -13.048 c 0,0 2.374,-26.097 -11.447,-27.274 0,0 -13.453,-40.324 31.619,-48.238002 v 17.392002 l 76.69,7.914 28.472,-7.122 c 0,0 5.926,-72.733002 2.76,-102.769002 0,0 -21.734,-24.1280004 -86.573,-11.4660004 0,0 -12.662,2.375 -14.63,21.7360004 l -5.135,50.207 c 0,0 -53.371997,13.048 -57.714997,68.390002 v 1.178 h -14.632 c 0,0 -23.318,18.202 -5.925,45.478 l 7.103,1.968 29.649997,145.486 -6.312,9.883 8.686,49.011 -2.374,3.165 -0.386,29.649 -3.552,1.97 -98.0389971,59.297 c 0,0 -20.1719999,17.798 2.7600001,31.232 0,0 41.907,30.441 217.427997,28.066 0,0 56.538,1.583 91.707,-21.734 l 70.378,-46.656 v -3.146 l 12.259,-8.705 4.342,0.405 19.362,-14.246 c -0.003,-0.002 2.37,-10.271 -5.929,-11.063 z"
     id="path3"
     inkscape:connector-curvature="0" /></svg>