<?xml version="1.0" encoding="utf-8"?>
<!-- Generator: Adobe Illustrator 16.0.0, SVG Export Plug-In . SVG Version: 6.00 Build 0)  -->
<!DOCTYPE svg PUBLIC "-//W3C//DTD SVG 1.1//EN" "http://www.w3.org/Graphics/SVG/1.1/DTD/svg11.dtd">
<svg version="1.1" id="Layer_1" xmlns="http://www.w3.org/2000/svg" xmlns:xlink="http://www.w3.org/1999/xlink" x="0px" y="0px"
	 width="32px" height="32px" viewBox="0 0 32 32" enable-background="new 0 0 32 32" xml:space="preserve">
<g>
	<path fill="#FFFFFF" d="M16.228,0.397c-6.348,0-11.798,4.829-11.798,10.907v5.738c0,4.874,3.368,8.984,7.962,10.474l0.009,0.015
		l3.91,4.07l4.085-4.229c4.364-1.604,7.513-5.614,7.513-10.329v-5.738C27.908,5.34,22.457,0.397,16.228,0.397z M22.218,17.043
		c0,3.011-2.815,5.682-5.99,5.682c-3.293,0-6.108-2.558-6.108-5.682v-5.738c0-3.067,2.935-5.51,6.108-5.51
		c3.115,0,5.99,2.5,5.99,5.51V17.043z"/>
	<polygon fill="#FFFFFF" points="14.484,11.137 18.709,13.954 14.484,16.771 	"/>
</g>
</svg>
