<?xml version="1.0" standalone="no"?>
<!DOCTYPE svg PUBLIC "-//W3C//DTD SVG 1.1//EN" "http://www.w3.org/Graphics/SVG/1.1/DTD/svg11.dtd">
<svg width="120px" height="45px" version="1.1" xmlns="http://www.w3.org/2000/svg" xmlns:xlink="http://www.w3.org/1999/xlink" xml:space="preserve" style="fill-rule:evenodd;clip-rule:evenodd;stroke-linejoin:round;stroke-miterlimit:1.41421;">
    <g id="Layer_1">
        <g>
            <g>
                <path d="M40.1565,5.60581C34.2394,5.60581 29.1594,10.107 29.1594,15.7724L29.1594,21.1208C29.1594,25.6639 32.2988,29.4949 36.5809,30.8838L36.5893,30.8978L40.2339,34.6915L44.0415,30.7495C48.1093,29.2544 51.0445,25.5167 51.0445,21.1218L51.0445,15.7733C51.0436,10.2132 45.9626,5.60581 40.1565,5.60581ZM45.7398,21.1218C45.7398,23.9283 43.1159,26.418 40.1565,26.418C37.087,26.418 34.4631,24.0337 34.4631,21.1218L34.4631,15.7733C34.4631,12.9145 37.1989,10.6374 40.1565,10.6374C43.06,10.6374 45.7398,12.9676 45.7398,15.7733Z" style="fill:white;fill-rule:nonzero;"/>
                <path d="M38.5309,15.6167L42.4691,18.2425L38.5309,20.8682Z" style="fill:white;fill-rule:nonzero;"/>
            </g>
            <g>
                <path d="M7.24,18.6C7.24,13.32 9.64,10.44 13.96,10.44C17.8,10.44 19.24,12.36 19.72,14.28L20.2,14.76L24.04,14.76L24.52,14.28C24.04,9.96 20.68,6.12 13.96,6.12C6.76,6.12 2.44,10.92 2.44,18.6C2.44,26.28 6.76,31.08 13.96,31.08C20.68,31.08 24.04,27.24 24.52,22.92L24.04,22.44L20.2,22.44L19.72,22.92C19.24,24.84 17.8,26.76 13.96,26.76C9.64,26.76 7.24,23.88 7.24,18.6Z" style="fill:white;fill-rule:nonzero;"/>
            </g>
            <g>
                <path d="M68.787,31.12L68.787,27.76L68.307,27.28L64.467,27.28C63.507,27.28 62.547,26.8 62.547,25.36L62.547,12.4L63.027,11.92L68.307,11.92L68.787,11.44L68.787,8.08L68.307,7.6L63.027,7.6L62.547,7.12L62.547,2.8L62.067,2.32L58.227,2.32L57.747,2.8L57.747,7.12L57.267,7.6L53.907,7.6L53.427,8.08L53.427,11.44L53.907,11.92L57.267,11.92L57.747,12.4L57.747,25.36C57.747,29.68 61.107,31.6 64.467,31.6L68.307,31.6L68.787,31.12Z" style="fill:white;fill-rule:nonzero;"/>
                <path d="M91.827,31.12L91.827,17.68C91.827,10.48 89.427,7.12 82.227,7.12C75.027,7.12 72.627,10.96 72.627,14.32L73.107,14.8L76.947,14.8L77.427,14.32C77.427,12.4 78.867,11.44 82.227,11.44C85.587,11.44 87.027,12.4 87.027,15.76L87.027,16.72L86.547,17.2C86.547,17.2 84.627,16.72 82.227,16.72C75.987,16.72 71.667,19.12 71.667,24.4C71.667,29.2 74.547,32.08 79.827,32.08C84.627,32.08 86.547,29.2 86.547,29.2L87.027,29.2L87.507,31.12L87.987,31.6L91.347,31.6L91.827,31.12ZM87.027,22.96C87.027,25.84 84.627,27.76 80.787,27.76C77.907,27.76 76.467,26.8 76.467,24.4C76.467,22 78.387,20.56 82.707,20.56C85.107,20.56 86.547,21.04 86.547,21.04L87.027,21.52L87.027,22.96Z" style="fill:white;fill-rule:nonzero;"/>
                <path d="M106.707,37.36C104.307,37.36 102.867,36.88 101.907,34.96L101.427,34.48L97.587,34.48L97.107,34.96C97.587,38.8 100.947,41.68 106.707,41.68C112.467,41.68 117.747,38.32 117.747,28.72L117.747,8.08L117.267,7.6L113.907,7.6L113.427,8.08L112.947,10L112.467,10C112.467,10 110.547,7.12 106.227,7.12C99.507,7.12 95.667,12.4 95.667,19.6C95.667,26.8 99.507,32.08 106.227,32.08C110.547,32.08 112.467,29.2 112.467,29.2L112.947,29.2C112.947,34.48 111.027,37.36 106.707,37.36ZM112.947,19.6C112.947,25.36 110.547,27.76 106.707,27.76C102.867,27.76 100.467,24.88 100.467,19.6C100.467,14.32 102.867,11.44 106.707,11.44C110.547,11.44 112.947,13.84 112.947,19.6Z" style="fill:white;fill-rule:nonzero;"/>
            </g>
        </g>
    </g>
</svg>
