<?xml version="1.0" encoding="iso-8859-1"?>
<!-- Generator: Adobe Illustrator 16.0.0, SVG Export Plug-In . SVG Version: 6.00 Build 0)  -->
<!DOCTYPE svg PUBLIC "-//W3C//DTD SVG 1.1//EN" "http://www.w3.org/Graphics/SVG/1.1/DTD/svg11.dtd">
<svg version="1.1" id="Capa_1" xmlns="http://www.w3.org/2000/svg" xmlns:xlink="http://www.w3.org/1999/xlink" x="0px" y="0px"
	 width="235.619px" height="235.619px" viewBox="0 0 235.619 235.619" style="enable-background:new 0 0 235.619 235.619;"
	 xml:space="preserve">
<g>
	<g>
		<g id="Layer_5_9_">
			<g>
				<path d="M206.25,20.312h-33.628c0,0-1.875,0-1.875,2.493c0,8.426,0,33.701,0,33.701c0,1.65-1.353,3-3,3h-3.951
					c-1.649,0-3-1.35-3-3c0,0,0-25.275,0-33.701c0-2.493-1.735-2.493-1.735-2.493H29.37c-18.018,0-29.977,14.478-26.575,32.171
					l17.945,93.362c3.401,17.692,20.926,32.171,38.943,32.171h116.253c18.019,0,35.542-14.479,38.943-32.171l17.945-93.362
					C236.227,34.789,224.268,20.312,206.25,20.312z M189.99,124.261c0,1.801-1.476,3.274-3.275,3.274h-41.886
					c-1.803,0-3.275-1.476-3.275-3.274V87.397c0-1.803,0.841-4.487,1.869-5.967l7.231-10.406c1.027-1.479,3.345-2.69,5.146-2.69
					h19.942c1.803,0,4.104,1.22,5.115,2.711l7.293,10.752c1.011,1.491,1.839,4.185,1.839,5.987L189.99,124.261L189.99,124.261z"/>
				<path d="M206.013,208.821c-6.823,3.567-18.707,6.486-26.406,6.486H51.688c-7.7,0-19.464-3.137-26.143-6.969L4.511,196.271
					c-6.679-3.832-5.843-6.967,1.857-6.967h222.974c7.7,0,8.417,2.919,1.594,6.484L206.013,208.821z"/>
			</g>
		</g>
	</g>
</g>
<g>
</g>
<g>
</g>
<g>
</g>
<g>
</g>
<g>
</g>
<g>
</g>
<g>
</g>
<g>
</g>
<g>
</g>
<g>
</g>
<g>
</g>
<g>
</g>
<g>
</g>
<g>
</g>
<g>
</g>
</svg>
