<?xml version="1.0" encoding="iso-8859-1"?>
<!-- Generator: Adobe Illustrator 19.0.0, SVG Export Plug-In . SVG Version: 6.00 Build 0)  -->
<svg version="1.1" id="Layer_1" xmlns="http://www.w3.org/2000/svg" xmlns:xlink="http://www.w3.org/1999/xlink" x="0px" y="0px"
	 viewBox="0 0 298.803 298.803" style="enable-background:new 0 0 298.803 298.803;" xml:space="preserve">
<g>
	<g>
		<path d="M268.462,86.941c-2.354-2.512-5.643-3.938-9.085-3.938h-58.1V45.318l46.718-21.562c6.242-2.882,8.968-10.278,6.086-16.521
			c-2.882-6.242-10.279-8.968-16.521-6.086l-53.95,24.9c-4.409,2.034-7.233,6.448-7.233,11.304v45.65h-25.054
			c-2.145-32.396-29.167-58.1-62.096-58.1c-34.325,0-62.25,27.925-62.25,62.25s27.925,62.25,62.25,62.25
			c6.787,0,13.505-1.134,19.878-3.281l9.199,141.042c0.427,6.548,5.862,11.639,12.423,11.639h116.2
			c6.561,0,11.997-5.092,12.423-11.639l12.45-190.9C272.024,92.827,270.815,89.454,268.462,86.941z M118.277,83.002L118.277,83.002
			c-3.443,0.001-6.731,1.427-9.085,3.938c-2.354,2.512-3.562,5.887-3.337,9.323l1.535,23.541
			c-5.512,3.087-11.691,4.698-18.162,4.698c-20.595,0-37.35-16.756-37.35-37.35c0-20.594,16.755-37.35,37.35-37.35
			c19.192,0,35.043,14.552,37.114,33.2H118.277z M133.19,132.803l-0.499-7.64c-0.003-0.039-0.004-0.077-0.007-0.115l-1.119-17.144
			h44.812v24.9H133.19z M244.465,132.803h-43.187v-24.9h44.812L244.465,132.803z"/>
	</g>
</g>
<g>
</g>
<g>
</g>
<g>
</g>
<g>
</g>
<g>
</g>
<g>
</g>
<g>
</g>
<g>
</g>
<g>
</g>
<g>
</g>
<g>
</g>
<g>
</g>
<g>
</g>
<g>
</g>
<g>
</g>
</svg>
