<?xml version="1.0" encoding="UTF-8" standalone="no"?>
<!-- Generator: Adobe Illustrator 16.0.0, SVG Export Plug-In . SVG Version: 6.00 Build 0)  -->

<svg
   xmlns:dc="http://purl.org/dc/elements/1.1/"
   xmlns:cc="http://creativecommons.org/ns#"
   xmlns:rdf="http://www.w3.org/1999/02/22-rdf-syntax-ns#"
   xmlns:svg="http://www.w3.org/2000/svg"
   xmlns="http://www.w3.org/2000/svg"
   xmlns:sodipodi="http://sodipodi.sourceforge.net/DTD/sodipodi-0.dtd"
   xmlns:inkscape="http://www.inkscape.org/namespaces/inkscape"
   version="1.1"
   id="Layer_1"
   x="0px"
   y="0px"
   width="1024px"
   height="768px"
   viewBox="0 0 1024 768"
   style="enable-background:new 0 0 1024 768;"
   xml:space="preserve"
   inkscape:version="0.48.2 r9819"
   sodipodi:docname="microphone.svg"><metadata
   id="metadata3033"><rdf:RDF><cc:Work
       rdf:about=""><dc:format>image/svg+xml</dc:format><dc:type
         rdf:resource="http://purl.org/dc/dcmitype/StillImage" /></cc:Work></rdf:RDF></metadata><defs
   id="defs3031" /><sodipodi:namedview
   pagecolor="#ffffff"
   bordercolor="#666666"
   borderopacity="1"
   objecttolerance="10"
   gridtolerance="10"
   guidetolerance="10"
   inkscape:pageopacity="0"
   inkscape:pageshadow="2"
   inkscape:window-width="1747"
   inkscape:window-height="1012"
   id="namedview3029"
   showgrid="false"
   inkscape:zoom="0.86915208"
   inkscape:cx="80.925596"
   inkscape:cy="529.54365"
   inkscape:window-x="0"
   inkscape:window-y="0"
   inkscape:window-maximized="0"
   inkscape:current-layer="Layer_1" />
<path
   style="fill-rule:evenodd;clip-rule:evenodd;fill:#545454;fill-opacity:1"
   d="M522.344,529.314v55.371h53.247v40.654h-53.247h-43.462h-53.25  v-40.654h53.25v-55.371c-94.623-8.417-182.913-76.381-178.705-203.274l2.806-86.923h44.147l-2.123,99.517  c-4.894,208.202,307,214.501,309.807,6.364l2.086-105.881h44.146l-2.086,95.342C696.152,454.986,612.036,519.458,522.344,529.314z"
   id="path3025" />
<path
   style="fill-rule:evenodd;clip-rule:evenodd;fill:#545454;fill-opacity:1"
   d="M589.621,191.48v134.56c0,60.983-39.935,110.739-88.324,110.739  c-48.355,0-88.292-49.756-88.292-110.739V191.48c0-60.913,39.937-110.739,88.292-110.739  C549.687,80.741,589.621,130.567,589.621,191.48z"
   id="path3027" />
</svg>