<?xml version="1.0" encoding="UTF-8" standalone="no"?>
<!-- Generator: Adobe Illustrator 16.0.0, SVG Export Plug-In . SVG Version: 6.00 Build 0)  -->

<svg
   xmlns:dc="http://purl.org/dc/elements/1.1/"
   xmlns:cc="http://creativecommons.org/ns#"
   xmlns:rdf="http://www.w3.org/1999/02/22-rdf-syntax-ns#"
   xmlns:svg="http://www.w3.org/2000/svg"
   xmlns="http://www.w3.org/2000/svg"
   xmlns:sodipodi="http://sodipodi.sourceforge.net/DTD/sodipodi-0.dtd"
   xmlns:inkscape="http://www.inkscape.org/namespaces/inkscape"
   version="1.1"
   id="Layer_1"
   x="0px"
   y="0px"
   width="551"
   height="551"
   viewBox="0 0 551.00001 550.99999"
   xml:space="preserve"
   inkscape:version="0.48.5 r10040"
   sodipodi:docname="volume-white.svg"><metadata
     id="metadata45"><rdf:RDF><cc:Work
         rdf:about=""><dc:format>image/svg+xml</dc:format><dc:type
           rdf:resource="http://purl.org/dc/dcmitype/StillImage" /></cc:Work></rdf:RDF></metadata><defs
     id="defs43" /><sodipodi:namedview
     pagecolor="#ffffff"
     bordercolor="#666666"
     borderopacity="1"
     objecttolerance="10"
     gridtolerance="10"
     guidetolerance="10"
     inkscape:pageopacity="0"
     inkscape:pageshadow="2"
     inkscape:window-width="1125"
     inkscape:window-height="797"
     id="namedview41"
     showgrid="false"
     inkscape:zoom="0.30729167"
     inkscape:cx="-429.38346"
     inkscape:cy="179.68429"
     inkscape:window-x="0"
     inkscape:window-y="0"
     inkscape:window-maximized="0"
     inkscape:current-layer="Layer_1"
     fit-margin-top="0"
     fit-margin-left="0"
     fit-margin-right="0"
     fit-margin-bottom="0" /><g
     id="g3"
     transform="translate(-231.95974,-165.6334)"
     style="fill:#ffffff;fill-opacity:1"><g
       id="g5"
       style="fill:#ffffff;fill-opacity:1"><path
         style="fill:#ffffff;fill-opacity:1"
         d="m 479.958,514.694 c 0,7.706 -5.987,13.737 -13.737,13.737 h -14.578 c -7.706,0 -13.737,-6.031 -13.737,-13.737 V 364.585 c 0,-7.707 6.031,-13.737 13.737,-13.737 h 14.578 c 7.75,0 13.737,6.031 13.737,13.737 v 150.109 z"
         id="path7"
         inkscape:connector-curvature="0" /><path
         style="fill:#ffffff;stroke:#4c4c4c;stroke-width:0.23999999000000000;stroke-linecap:round;stroke-linejoin:round;stroke-miterlimit:10;fill-opacity:1"
         d="m 479.958,514.694 c 0,7.706 -5.987,13.737 -13.737,13.737 h -14.578 c -7.706,0 -13.737,-6.031 -13.737,-13.737 V 364.585 c 0,-7.707 6.031,-13.737 13.737,-13.737 h 14.578 c 7.75,0 13.737,6.031 13.737,13.737 v 150.109 z"
         id="path9"
         inkscape:connector-curvature="0" /></g><g
       id="g11"
       style="fill:#ffffff;fill-opacity:1"><path
         style="fill:#ffffff;fill-opacity:1"
         d="m 479.958,514.694 c 0,7.706 -5.987,13.737 -13.737,13.737 h -14.578 c -7.706,0 -13.737,-6.031 -13.737,-13.737 V 364.585 c 0,-7.707 6.031,-13.737 13.737,-13.737 h 14.578 c 7.75,0 13.737,6.031 13.737,13.737 v 150.109 z"
         id="path13"
         inkscape:connector-curvature="0" /><path
         style="fill:#ffffff;stroke:#888888;stroke-width:0.23999999000000000;stroke-linecap:round;stroke-linejoin:round;stroke-miterlimit:10;fill-opacity:1"
         d="m 479.958,514.694 c 0,7.706 -5.987,13.737 -13.737,13.737 h -14.578 c -7.706,0 -13.737,-6.031 -13.737,-13.737 V 364.585 c 0,-7.707 6.031,-13.737 13.737,-13.737 h 14.578 c 7.75,0 13.737,6.031 13.737,13.737 v 150.109 z"
         id="path15"
         inkscape:connector-curvature="0" /></g></g><g
     id="g17"
     transform="translate(-231.95974,-165.6334)"
     style="fill:#ffffff;fill-opacity:1"><g
       id="g19"
       style="fill:#ffffff;fill-opacity:1"><path
         style="fill:#ffffff;fill-opacity:1"
         d="m 469.654,364.585 c 0,-7.707 5.152,-17.173 12.019,-21.444 l 139.809,-87.537 c 6.866,-3.351 12.019,-0.837 12.019,6.869 v 355.168 c 0,6.868 -5.152,10.22 -12.019,6.031 L 481.673,536.138 C 474.806,531.865 469.654,522.4 469.654,514.694 V 364.585 z"
         id="path21"
         inkscape:connector-curvature="0" /></g><g
       id="g23"
       style="fill:#ffffff;fill-opacity:1"><path
         style="fill:#ffffff;fill-opacity:1"
         d="m 469.654,364.585 c 0,-7.707 5.152,-17.173 12.019,-21.444 l 139.809,-87.537 c 6.866,-3.351 12.019,-0.837 12.019,6.869 v 355.168 c 0,6.868 -5.152,10.22 -12.019,6.031 L 481.673,536.138 C 474.806,531.865 469.654,522.4 469.654,514.694 V 364.585 z"
         id="path25"
         inkscape:connector-curvature="0" /></g></g><g
     id="g27"
     transform="translate(-231.95974,-165.6334)"
     style="fill:#ffffff;fill-opacity:1"><g
       id="g29"
       style="fill:#ffffff;fill-opacity:1"><path
         style="fill:#ffffff;fill-opacity:1"
         d="m 444.776,535.298 c 0,7.707 -6.871,13.655 -14.578,13.655 h -56.626 c -7.707,0 -14.573,-5.948 -14.573,-13.655 V 344.062 c 0,-7.792 6.866,-13.737 14.573,-13.737 h 56.626 c 7.707,0 14.578,5.946 14.578,13.737 v 191.236 z"
         id="path31"
         inkscape:connector-curvature="0" /><path
         style="fill:#ffffff;stroke:#4c4c4c;stroke-width:0.23999999000000000;stroke-linecap:round;stroke-linejoin:round;stroke-miterlimit:10;fill-opacity:1"
         d="m 444.776,535.298 c 0,7.707 -6.871,13.655 -14.578,13.655 h -56.626 c -7.707,0 -14.573,-5.948 -14.573,-13.655 V 344.062 c 0,-7.792 6.866,-13.737 14.573,-13.737 h 56.626 c 7.707,0 14.578,5.946 14.578,13.737 v 191.236 z"
         id="path33"
         inkscape:connector-curvature="0" /></g><g
       id="g35"
       style="fill:#ffffff;fill-opacity:1"><path
         style="fill:#ffffff;fill-opacity:1"
         d="m 444.776,535.298 c 0,7.707 -6.871,13.655 -14.578,13.655 h -56.626 c -7.707,0 -14.573,-5.948 -14.573,-13.655 V 344.062 c 0,-7.792 6.866,-13.737 14.573,-13.737 h 56.626 c 7.707,0 14.578,5.946 14.578,13.737 v 191.236 z"
         id="path37"
         inkscape:connector-curvature="0" /><path
         style="fill:#ffffff;stroke:#888888;stroke-width:0.23999999000000000;stroke-linecap:round;stroke-linejoin:round;stroke-miterlimit:10;fill-opacity:1"
         d="m 444.776,535.298 c 0,7.707 -6.871,13.655 -14.578,13.655 h -56.626 c -7.707,0 -14.573,-5.948 -14.573,-13.655 V 344.062 c 0,-7.792 6.866,-13.737 14.573,-13.737 h 56.626 c 7.707,0 14.578,5.946 14.578,13.737 v 191.236 z"
         id="path39"
         inkscape:connector-curvature="0" /></g></g></svg>