<?xml version="1.0" encoding="UTF-8" standalone="no"?>
<svg
   xmlns:dc="http://purl.org/dc/elements/1.1/"
   xmlns:cc="http://creativecommons.org/ns#"
   xmlns:rdf="http://www.w3.org/1999/02/22-rdf-syntax-ns#"
   xmlns:svg="http://www.w3.org/2000/svg"
   xmlns="http://www.w3.org/2000/svg"
   xmlns:sodipodi="http://sodipodi.sourceforge.net/DTD/sodipodi-0.dtd"
   xmlns:inkscape="http://www.inkscape.org/namespaces/inkscape"
   version="1.1"
   x="0px"
   y="0px"
   viewBox="0 0 87.747 95.839869"
   enable-background="new 0 0 100 100"
   xml:space="preserve"
   id="svg2"
   inkscape:version="0.48.5 r10040"
   width="100%"
   height="100%"
   sodipodi:docname="waiter.svg"><metadata
     id="metadata18"><rdf:RDF><cc:Work
         rdf:about=""><dc:format>image/svg+xml</dc:format><dc:type
           rdf:resource="http://purl.org/dc/dcmitype/StillImage" /></cc:Work></rdf:RDF></metadata><defs
     id="defs16" /><sodipodi:namedview
     pagecolor="#ffffff"
     bordercolor="#666666"
     borderopacity="1"
     objecttolerance="10"
     gridtolerance="10"
     guidetolerance="10"
     inkscape:pageopacity="0"
     inkscape:pageshadow="2"
     inkscape:window-width="1378"
     inkscape:window-height="865"
     id="namedview14"
     showgrid="false"
     inkscape:zoom="1.888"
     inkscape:cx="-49.75"
     inkscape:cy="35.34"
     inkscape:window-x="0"
     inkscape:window-y="0"
     inkscape:window-maximized="0"
     inkscape:current-layer="svg2"
     fit-margin-top="0"
     fit-margin-left="0"
     fit-margin-right="0"
     fit-margin-bottom="0" /><path
     d="m 43.562,95.839869 c -6.348,0 -24.146,-2.489 -29.498,-4.107 -5.352,-1.619 -11.824,-4.979 -12.944,-5.975 C 0,84.762869 0,84.264869 0,84.264869 v -8.339 c 0,0 0.249,-2.489 1.369,-4.605 1.12,-2.116 6.348,-4.231 6.348,-4.231 0,0 6.845,-2.614 8.712,-2.738 1.867,-0.125 10.579,-3.609 10.579,-3.609 l 16.554,27.631 h 0.623 l 16.554,-27.631 c 0,0 8.712,3.484 10.579,3.609 1.867,0.124 8.712,2.738 8.712,2.738 0,0 5.228,2.115 6.348,4.231 1.12,2.116 1.369,4.605 1.369,4.605 v 8.339 c 0,0 0,0.498 -1.12,1.493 -1.12,0.996 -7.592,4.356 -12.944,5.975 -5.352,1.618 -23.15,4.107 -29.497,4.107 h -0.624 z m 25.93,-26.843 1.991,17.757 c 0,0 0.249,0.249 2.157,-0.332 1.908,-0.581 3.568,-1.079 4.315,-1.494 0.746,-0.414 3.193,-1.16 3.567,-2.074 v -5.558 c 0,0 0.082,-3.154 -0.498,-3.652 -0.58,-0.498 -7.217,-4.232 -11.532,-4.647 z m -63.472,4.647 c -0.581,0.498 -0.498,3.652 -0.498,3.652 v 5.558 c 0.373,0.914 2.821,1.66 3.568,2.074 0.747,0.415 2.406,0.913 4.315,1.494 1.908,0.581 2.157,0.332 2.157,0.332 l 1.991,-17.757 c -4.314,0.415 -10.952,4.149 -11.533,4.647 z m 58.452,8.194 h -10.33 v 3.36 h 10.33 v -3.36 z"
     id="path4"
     style="fill:#ffffff;fill-opacity:1"
     inkscape:connector-curvature="0" /><path
     d="m 48.966,69.888869 c 0,0 1.12,1.167 2.126,1.226 0.967,0.056 1.577,-1.079 1.577,-1.079 v -8.463 c 0,0 -0.581,-0.788 -1.494,-0.831 -0.912,-0.043 -0.705,10e-4 -1.41,0.25 -0.706,0.249 -2.769,2.437 -2.769,2.437 -0.678,-1.002 -1.823,-1.66 -3.123,-1.66 -1.334,0 -2.507,0.694 -3.175,1.742 0,0 -2.114,-2.27 -2.819,-2.519 -0.705,-0.249 -0.498,-0.293 -1.411,-0.25 -0.913,0.043 -1.494,0.831 -1.494,0.831 v 8.463 c 0,0 0.61,1.135 1.577,1.079 1.006,-0.059 2.126,-1.226 2.126,-1.226 l 2.282,-1.972 c 0.69,0.843 1.74,1.381 2.914,1.381 1.15,0 2.182,-0.517 2.871,-1.33 l 2.222,1.921 z"
     id="path6"
     style="fill:#ffffff;fill-opacity:1"
     inkscape:connector-curvature="0" /><path
     d="m 64.759,22.447869 -0.415,5.559 c 0,0 1.812,0.531 2.322,1.357 0.548,0.885 1.08,4.865 0.25,7.189 -0.83,2.323 -1.168,2.897 -2.157,3.817 -1.042,0.968 -1.793,1.266 -2.24,1.411 -1.573,0.507 -0.992,0.628 -1.743,2.489 -0.73,1.813 -0.497,2.987 -3.401,5.892 -2.904,2.903 -6.057,4.729 -7.882,5.476 -1.826,0.747 -4.813,1.328 -4.813,1.328 h -1.241 c 0,0 -2.987,-0.581 -4.812,-1.328 -1.826,-0.746 -4.979,-2.572 -7.883,-5.476 -2.904,-2.904 -2.67,-4.078 -3.402,-5.892 -0.75,-1.861 -0.169,-1.982 -1.742,-2.489 -0.447,-0.145 -1.198,-0.442 -2.24,-1.411 -0.989,-0.919 -1.328,-1.494 -2.157,-3.817 -0.83,-2.324 -0.297,-6.304 0.25,-7.189 0.511,-0.826 2.322,-1.357 2.322,-1.357 l -0.415,-5.559 c 0,0 -0.145,-7.323 -0.083,-8.567 0.062,-1.245 0.436,-2.987 0.934,-3.672 0.498,-0.6850005 3.298,-3.7340005 3.983,-4.2940005 0.685,-0.56 0.451,-0.355 0.935,-0.913 0.408,-0.47 -0.187,-0.54 -0.498,-0.726 -0.311,-0.186 -0.437,-0.104 1.119,-0.602 1.556,-0.498 3.196,-1.369 4.565,-1.742 1.369,-0.373 4.209,-0.623 7.072,-0.685 2.863,-0.062 1.307,-0.37299997 0.747,-0.93299997 -0.56,-0.56 1.618,-0.249 4.294,0 2.676,0.249 3.547,0.125 5.414,0.87099997 1.867,0.746 3.688,2.913 4.48,3.983 0.325,0.438 0.312,0.56 0.312,0.56 0,0 1.493,-0.062 3.049,0 1.556,0.062 1.93,0.125 2.738,1.058 0.81,0.934 1.681,2.489 1.93,4.9170005 0.249,2.428 0.622,3.92 0.622,6.099 0,2.179 -0.214,4.646 -0.214,4.646 z"
     id="path8"
     style="fill:#ffffff;fill-opacity:1"
     inkscape:connector-curvature="0" /></svg>