<?xml version="1.0" encoding="UTF-8"?>
<svg width="264px" height="82px" viewBox="0 0 266 82" version="1.1" xmlns="http://www.w3.org/2000/svg" xmlns:xlink="http://www.w3.org/1999/xlink">
    <!-- Generator: Sketch 49 (51002) - http://www.bohemiancoding.com/sketch -->
    <title>Logo/Arup White</title>
    <desc>Created with Sketch.</desc>
    <defs>
        <polygon id="path-1" points="4.20049087e-20 1.54716981 4.20049087e-20 79.4641887 70.3207719 79.4641887 70.3207719 1.54716981 0 1.54716981"></polygon>
        <polygon id="path-3" points="263.57117 79.4555245 263.57117 7.13616604 215.008137 7.13616604 215.008137 79.4555245 263.57117 79.4555245"></polygon>
    </defs>
    <g id="Logo/Arup-White" stroke="none" stroke-width="1" fill="none" fill-rule="evenodd">
        <path d="M199.455892,54.6177245 C199.455892,69.2585925 187.281389,81.1145547 172.632003,81.1145547 C157.971769,81.1145547 146.090161,69.2524038 146.090161,54.6177245 L146.090161,15.7110453 C146.090161,9.41561132 140.539108,9.36919623 140.539108,9.36919623 L140.540658,7.13817736 L163.205132,7.13817736 L163.21133,9.36919623 C163.21133,9.36919623 157.635482,9.41561132 157.635482,15.562517 L157.637032,57.1566302 C157.637032,65.9878755 164.809079,73.1481774 173.65636,73.1481774 C182.494342,73.1481774 189.489722,65.9971585 189.489722,57.1566302 L189.489722,15.7853094 C189.489722,9.41561132 183.77595,9.36919623 183.77595,9.36919623 L183.783699,7.13817736 L205.072032,7.13817736 L205.08443,9.36919623 C205.08443,9.36919623 199.455892,9.41561132 199.455892,15.7853094 L199.455892,54.6177245 Z" id="Fill-1" fill="#FFFFFF"></path>
        <path d="M93.3804211,14.8016189 L93.3695731,69.5234679 C93.3695731,77.2268264 99.6954795,77.1463736 99.6954795,77.1463736 L99.7001287,79.4532038 L76.7148655,79.4454679 L76.7195146,77.1463736 C76.7195146,77.1463736 81.8087544,77.2268264 81.8087544,70.0448642 L81.8087544,15.7129019 C81.8087544,9.41746792 75.6114737,9.3726 75.6114737,9.3726 L75.6192222,7.14003396 L96.8920585,7.13848679 C113.018316,7.13848679 120.387175,13.8996189 123.052673,21.1094302 C125.618988,27.9417321 124.352877,36.4944868 118.808023,42.0287132 C116.01855,44.8120717 112.390684,46.1952415 112.390684,46.1952415 C112.390684,46.1952415 114.033374,46.9394302 117.39314,51.1136943 C117.39314,51.1136943 127.926503,64.8742226 133.195509,71.0969396 C136.518082,74.9184491 140.149047,77.1463736 145.066269,77.0504491 L145.447497,78.7012792 C139.944485,81.7909774 133.406269,81.951883 127.892409,78.3670906 C117.689135,71.6461849 109.196737,55.5262226 104.925743,51.2622226 C100.372702,46.7166377 97.2841345,46.5479962 97.2841345,46.5479962 L97.5460351,44.5567887 C98.866386,44.7625623 106.490947,44.7641094 110.737146,40.7538453 C114.980246,36.7435811 117.467526,26.6281849 110.115713,18.8273547 C103.743316,12.0646755 94.4109766,13.8887887 93.3804211,14.8016189" id="Fill-3" fill="#FFFFFF"></path>
        <mask id="mask-2" fill="white">
            <use xlink:href="#path-1"></use>
        </mask>
        <g id="Clip-6"></g>
        <path d="M32.2351579,1.54716981 L64.241269,72.8732453 C66.6433158,77.2238868 70.2975263,77.143434 70.2975263,77.143434 L70.3207719,79.4518113 L46.6024971,79.4518113 L46.5839006,77.143434 C46.5839006,77.143434 53.6102749,77.2238868 50.4178772,70.1626038 L43.9075556,54.8750189 L21.5654211,54.8750189 L16.1058012,70.5354717 C13.626269,77.1991321 20.1117953,77.143434 20.1117953,77.143434 L20.1117953,79.4641887 L0.00743859649,79.4641887 L-0.00030994152,77.143434 C-0.00030994152,77.143434 4.47989474,77.0846415 6.9191345,70.2028302 L32.2351579,1.54716981 Z M23.6482281,49.1412075 L41.4977602,49.1412075 L31.6524678,25.9537736 L23.6482281,49.1412075 Z" id="Fill-5" fill="#FFFFFF" mask="url(#mask-2)"></path>
        <mask id="mask-4" fill="white">
            <use xlink:href="#path-3"></use>
        </mask>
        <g id="Clip-9"></g>
        <path d="M232.412904,14.7992981 L232.408254,69.8197509 C232.408254,77.2245057 238.385477,77.1440528 238.385477,77.1440528 L238.373079,79.450883 L215.482348,79.4555245 L215.507143,77.1440528 C215.507143,77.1440528 220.734307,77.2245057 220.734307,70.1168075 L220.632026,15.7105811 C220.632026,9.41514717 215.014336,9.37027925 215.014336,9.37027925 L215.008137,7.13771321 L235.913693,7.13616604 C252.03995,7.13616604 259.644365,13.8617132 262.206032,21.1071094 C265.991968,31.8166189 261.142933,39.5602038 256.950974,43.380166 C246.656266,52.7606566 236.19574,44.8932981 236.19574,44.8932981 L236.583167,43.3693358 C237.905067,43.5766566 245.52033,44.7617887 249.76498,40.7515245 C254.009629,36.7412604 256.496909,26.6258642 249.145096,18.825034 C242.772699,12.0623547 233.443459,13.8864679 232.412904,14.7992981" id="Fill-8" fill="#FFFFFF" mask="url(#mask-4)"></path>
    </g>
</svg>