<?xml version="1.0" encoding="UTF-8" standalone="no"?>
<!-- Generator: Adobe Illustrator 17.1.0, SVG Export Plug-In . SVG Version: 6.00 Build 0)  -->

<svg
   xmlns:dc="http://purl.org/dc/elements/1.1/"
   xmlns:cc="http://creativecommons.org/ns#"
   xmlns:rdf="http://www.w3.org/1999/02/22-rdf-syntax-ns#"
   xmlns:svg="http://www.w3.org/2000/svg"
   xmlns="http://www.w3.org/2000/svg"
   xmlns:sodipodi="http://sodipodi.sourceforge.net/DTD/sodipodi-0.dtd"
   xmlns:inkscape="http://www.inkscape.org/namespaces/inkscape"
   version="1.1"
   id="Capa_1"
   x="0px"
   y="0px"
   viewBox="0 0 204.542 204.542"
   style="enable-background:new 0 0 204.542 204.542;"
   xml:space="preserve"
   inkscape:version="0.48.5 r10040"
   width="100%"
   height="100%"
   sodipodi:docname="lectern.svg"><metadata
     id="metadata39"><rdf:RDF><cc:Work
         rdf:about=""><dc:format>image/svg+xml</dc:format><dc:type
           rdf:resource="http://purl.org/dc/dcmitype/StillImage" /><dc:title></dc:title></cc:Work></rdf:RDF></metadata><defs
     id="defs37" /><sodipodi:namedview
     pagecolor="#ffffff"
     bordercolor="#666666"
     borderopacity="1"
     objecttolerance="10"
     gridtolerance="10"
     guidetolerance="10"
     inkscape:pageopacity="0"
     inkscape:pageshadow="2"
     inkscape:window-width="1089"
     inkscape:window-height="729"
     id="namedview35"
     showgrid="false"
     inkscape:zoom="1.1537973"
     inkscape:cx="102.271"
     inkscape:cy="102.271"
     inkscape:window-x="0"
     inkscape:window-y="0"
     inkscape:window-maximized="0"
     inkscape:current-layer="Capa_1" /><path
     d="M143.165,72.392v132.149H61.376V72.392H143.165z M188.613,43.026c-0.994-1.225-2.468-1.927-4.045-1.927h-33.361  c-0.43-5.361-2.496-13.935-9.787-24.676c0.972-1.627,1.541-3.522,1.541-5.551C142.962,4.877,138.085,0,132.091,0  c-5.994,0-10.871,4.877-10.871,10.872c0,5.994,4.877,10.871,10.871,10.871c0.278,0,0.551-0.021,0.824-0.042  c5.945,8.671,7.728,15.419,8.206,19.398h-33.85V29.222c3.483-1.814,5.871-5.452,5.871-9.643c0-5.994-4.877-10.871-10.871-10.871  c-5.994,0-10.871,4.877-10.871,10.871c0,4.191,2.388,7.83,5.871,9.643v11.877H63.42c0.478-3.977,2.262-10.723,8.197-19.384  c0.183,0.009,0.363,0.028,0.548,0.028c5.994,0,10.871-4.877,10.871-10.871C83.036,4.877,78.16,0,72.165,0  c-5.995,0-10.872,4.877-10.872,10.872c0,2.121,0.62,4.097,1.675,5.771c-7.171,10.639-9.208,19.132-9.635,24.456H19.973  c-1.577,0-3.051,0.702-4.045,1.927c-0.994,1.225-1.377,2.812-1.053,4.353l11.371,54.107c0.507,2.392,2.65,4.128,5.095,4.128h20.035  V67.392c0-2.761,2.239-5,5-5h91.789c2.761,0,5,2.239,5,5v38.223H173.2c2.445,0,4.588-1.736,5.097-4.137l11.368-54.097  C189.991,45.838,189.607,44.25,188.613,43.026z"
     id="path3"
     style="fill:#ffffff;fill-opacity:1" /><g
     id="g5" /><g
     id="g7" /><g
     id="g9" /><g
     id="g11" /><g
     id="g13" /><g
     id="g15" /><g
     id="g17" /><g
     id="g19" /><g
     id="g21" /><g
     id="g23" /><g
     id="g25" /><g
     id="g27" /><g
     id="g29" /><g
     id="g31" /><g
     id="g33" /></svg>