<svg class="logo" xmlns="http://www.w3.org/2000/svg" xmlns:xlink="http://www.w3.org/1999/xlink" x="0px" y="0px" width="225px" height="56px" viewBox="139.84 222.16 225 56" enable-background="new 139.84 222.16 225 56" xml:space="preserve" aria-labelledby="logo-title">
   <title id="logo-title">Aurizon Logo</title>
  <g class="text">
    <path fill="#FFFFFF" d="M240.88,266.22l-1.98-4.84h-9.13l-1.98,4.84h-4.84l9.26-21.75h4.37l9.26,21.75H240.88z M234.33,250.18
      l-2.86,7h5.75L234.33,250.18z M254.78,266.54c-5.8,0-9.36-3.24-9.36-9.58v-12.34h4.74v12.22c0,3.51,1.76,5.32,4.67,5.32
      c2.89,0,4.67-1.76,4.67-5.19v-12.34h4.74v12.17C264.26,263.36,260.6,266.54,254.78,266.54 M279.59,266.22l-4.64-6.9h-3.74v6.9
      h-4.77v-21.6h9.89c5.09,0,8.13,2.68,8.13,7.13v0.08c0,3.49-1.88,5.67-4.62,6.7l5.27,7.73h-5.52V266.22z M279.67,251.99
      c0-2.03-1.43-3.09-3.74-3.09h-4.72v6.2h4.82c2.31,0,3.64-1.23,3.64-3.06V251.99z M286.99,244.62h4.74v21.6h-4.74V244.62z
       M294.49,266.22v-3.61l11.87-13.82h-11.52v-4.16h17.61v3.61l-11.87,13.82h11.87v4.16H294.49z M324.85,266.59
      c-6.67,0-11.44-4.97-11.44-11.11v-0.08c0-6.12,4.84-11.16,11.52-11.16c6.65,0,11.44,4.97,11.44,11.11v0.05
      C336.37,261.55,331.52,266.59,324.85,266.59 M331.4,255.4c0-3.69-2.71-6.77-6.55-6.77c-3.81,0-6.47,3.01-6.47,6.72v0.05
      c0,3.71,2.71,6.8,6.52,6.8c3.81,0,6.47-3.04,6.47-6.72v-0.08H331.4z M353.98,266.22l-10.46-13.72v13.72h-4.69v-21.6h4.39
      l10.11,13.3v-13.3h4.69v21.6H353.98z M361.1,262.1h1.15c0.75,0,1.18,0.25,1.18,0.9c0,0.55-0.35,0.78-0.8,0.8l0.8,1.33h-0.63
      l-0.73-1.3h-0.38v1.3h-0.6L361.1,262.1L361.1,262.1z M361.68,263.36h0.53c0.33,0,0.6-0.05,0.6-0.43c0-0.33-0.35-0.38-0.63-0.38
      h-0.5V263.36z M362.16,266.29c-1.48,0-2.68-1.2-2.68-2.68c0-1.48,1.2-2.68,2.68-2.68c1.48,0,2.68,1.2,2.68,2.68
      C364.84,265.09,363.64,266.29,362.16,266.29 M362.16,261.4c-1.23,0-2.23,1-2.23,2.23s1,2.23,2.23,2.23c1.23,0,2.23-1,2.23-2.23
      S363.39,261.4,362.16,261.4"></path>
  </g>
  <g class="aurizon-logo">
    <polygon fill="#FF6D22" points="195.84,222.16 173.44,222.16 195.84,244.56 207.03,233.35 "></polygon>
    <polygon fill="#FFE500" points="162.25,233.35 184.65,233.35 162.25,255.75 151.06,244.56 "></polygon>
    <polygon fill="#BD0000" points="195.84,244.56 207.03,233.35 218.25,244.56 207.03,255.75 "></polygon>
    <polygon fill="#FF9800" points="139.84,255.75 151.06,244.56 162.25,255.75 151.06,266.94 "></polygon>
    <polygon fill="#FF9800" points="173.44,266.94 195.84,244.56 195.84,266.94 "></polygon>
    <polygon fill="#FF6D22" points="207.03,255.75 195.84,266.94 195.84,244.56 "></polygon>
    <polygon fill="#FFE500" points="173.44,266.94 184.65,278.16 195.84,266.94 "></polygon>
    <polygon fill="#BD0000" points="173.44,266.94 162.25,255.75 151.06,266.94 "></polygon>
  </g>
</svg>
