<?xml version="1.0" encoding="utf-8"?>
<!-- Generator: Adobe Illustrator 16.0.0, SVG Export Plug-In . SVG Version: 6.00 Build 0)  -->
<!DOCTYPE svg PUBLIC "-//W3C//DTD SVG 1.1//EN" "http://www.w3.org/Graphics/SVG/1.1/DTD/svg11.dtd">
<svg version="1.1" id="svg_1_" xmlns="http://www.w3.org/2000/svg" xmlns:xlink="http://www.w3.org/1999/xlink" x="0px" y="0px"
	 width="300px" height="300px" viewBox="0 0 300 300" enable-background="new 0 0 300 300" xml:space="preserve">
<rect id="Background" fill="#2672EC" width="301" height="300"/>
<g id="svg_x5F_paths">
	<g id="svgb" display="none">
		<path id="E_1_" display="inline" fill="#C90000" d="M256.25,151.953c0-53.27-43.184-96.453-96.453-96.453
			c-45.833,0-84.198,31.968-94.017,74.823c24.157-27.101,41.063-38.036,51.187-42.412c-24.525,21.912-42.144,47.204-53.578,66.897
			c1.511,51.948,44.094,93.598,96.408,93.598c41.94,0,77.623-26.771,90.905-64.156h-50.68c-7.499,12.669-21.936,21.25-38.522,21.25
			c-24.301,0-44-18.412-44-41.125h137.956C255.979,160.308,256.25,156.162,256.25,151.953z M117.287,138
			c0.771-22.075,19.983-39.75,43.588-39.75c23.604,0,42.817,17.675,43.588,39.75H117.287z"/>
		<path id="Ring_1_" display="inline" fill="#FFFFFF" d="M205.252,42.589c-35.928,7.031-65.163,24.664-88.286,45.322
			c-26.998,24.122-45.654,52.364-56.87,72.694C51.412,176.348,47.183,187.347,47,188c-29.466,105.342,71.5,49.75,71.5,49.75
			l23.894-24.206l-18.856-10.086l-15.873-13.431l6.835,42.723c0,0-35.75,23-52.784,5.528C54.618,230.997,53.636,212.763,71,179
			c7.968-15.492,18.586-13.318,25.953-8.935l-3.764-8.896l16.418-45.771l45.274-35.821l35.323,7.463l20.397,17.91v15.92
			l3.246,20.281l25.485-25.819C283,30,209.198,41.817,205.252,42.589z M190.75,64c0,0,31.5-17.75,47.482-6.963
			c8.333,5.625,15.018,14.463,3.418,44.35C241.416,101.992,190.974,63.372,190.75,64z"/>
	</g>
	<path id="svg" fill="#FFFFFF" d="M256.25,151.953c0-16.968-4.387-32.909-12.08-46.761c32.791-74.213-35.136-63.343-38.918-62.603
		c-14.391,2.816-27.705,7.337-39.986,13.068c-1.811-0.102-3.633-0.158-5.469-0.158c-45.833,0-84.198,31.968-94.017,74.823
		c24.157-27.101,41.063-38.036,51.187-42.412c-1.616,1.444-3.198,2.904-4.754,4.375c-0.518,0.489-1.017,0.985-1.528,1.477
		c-1.026,0.987-2.05,1.975-3.05,2.972c-0.595,0.593-1.174,1.191-1.76,1.788c-0.887,0.903-1.772,1.805-2.638,2.713
		c-0.615,0.645-1.215,1.292-1.819,1.938c-0.809,0.866-1.613,1.733-2.402,2.603c-0.613,0.676-1.216,1.352-1.818,2.03
		c-0.748,0.842-1.489,1.684-2.22,2.528c-0.606,0.7-1.207,1.4-1.801,2.101c-0.693,0.818-1.377,1.636-2.054,2.454
		c-0.599,0.724-1.196,1.447-1.782,2.17c-0.634,0.782-1.254,1.563-1.873,2.343c-0.6,0.756-1.2,1.511-1.786,2.266
		c-0.558,0.719-1.1,1.435-1.646,2.152c-0.616,0.81-1.237,1.62-1.837,2.426c-0.429,0.577-0.841,1.148-1.262,1.723
		c-3.811,5.2-7.293,10.3-10.438,15.199c-0.008,0.012-0.016,0.024-0.023,0.036c-0.828,1.29-1.627,2.561-2.41,3.821
		c-0.042,0.068-0.086,0.137-0.128,0.206c-0.784,1.265-1.541,2.508-2.279,3.738c-0.026,0.043-0.053,0.087-0.079,0.13
		c-1.984,3.311-3.824,6.503-5.481,9.506C51.412,176.348,47.183,187.347,47,188c-27.432,98.072,58.184,56.657,70.131,50.475
		c12.864,6.355,27.346,9.932,42.666,9.932c41.94,0,77.623-26.771,90.905-64.156h-50.68c-7.499,12.669-21.936,21.25-38.522,21.25
		c-24.301,0-44-18.412-44-41.125h137.956C255.979,160.308,256.25,156.162,256.25,151.953z M238.232,57.037
		c8.306,5.606,14.968,14.41,3.527,44.059c-10.973-17.647-27.482-31.49-47.104-39.099C203.581,57.686,225.686,48.568,238.232,57.037z
		 M61.716,238.278c-6.765-6.938-7.961-23.836,6.967-54.628c7.534,21.661,22.568,39.811,42,51.33
		C101.019,240.299,75.363,252.275,61.716,238.278z M117.287,138c0.771-22.075,19.983-39.75,43.588-39.75
		c23.604,0,42.817,17.675,43.588,39.75H117.287z"/>
</g>
</svg>
