<?xml version="1.0" encoding="UTF-8" standalone="no"?>
<svg
   xmlns:dc="http://purl.org/dc/elements/1.1/"
   xmlns:cc="http://creativecommons.org/ns#"
   xmlns:rdf="http://www.w3.org/1999/02/22-rdf-syntax-ns#"
   xmlns:svg="http://www.w3.org/2000/svg"
   xmlns="http://www.w3.org/2000/svg"
   xmlns:sodipodi="http://sodipodi.sourceforge.net/DTD/sodipodi-0.dtd"
   xmlns:inkscape="http://www.inkscape.org/namespaces/inkscape"
   version="1.0"
   width="433"
   height="433"
   viewBox="0 0 346.4 346.4"
   preserveAspectRatio="xMidYMid meet"
   id="svg3336"
   inkscape:version="0.91 r13725"
   sodipodi:docname="wepresent.svg">
  <defs
     id="defs3358" />
  <sodipodi:namedview
     pagecolor="#ff94ff"
     bordercolor="#666666"
     borderopacity="1"
     objecttolerance="10"
     gridtolerance="10"
     guidetolerance="10"
     inkscape:pageopacity="0"
     inkscape:pageshadow="2"
     inkscape:window-width="1728"
     inkscape:window-height="1089"
     id="namedview3356"
     showgrid="false"
     inkscape:zoom="1.9899606"
     inkscape:cx="185.94558"
     inkscape:cy="215.72296"
     inkscape:window-x="-8"
     inkscape:window-y="-8"
     inkscape:window-maximized="1"
     inkscape:current-layer="svg3336"
     units="px" />
  <metadata
     id="metadata3338">
Created by potrace 1.10, written by Peter Selinger 2001-2011
<rdf:RDF>
  <cc:Work
     rdf:about="">
    <dc:format>image/svg+xml</dc:format>
    <dc:type
       rdf:resource="http://purl.org/dc/dcmitype/StillImage" />
    <dc:title></dc:title>
  </cc:Work>
</rdf:RDF>
</metadata>
  <g
     transform="matrix(0.13933308,0,0,-0.13590124,-40.874022,355.37075)"
     id="g3340"
     style="fill:#ffffff;stroke:none">
    <path
       d="m 1390,2335 c -187,-37 -359,-128 -485,-255 -53,-54 -58,-62 -44,-75 13,-14 22,-9 85,41 283,228 637,293 969,179 90,-32 107,-32 103,-3 -3,26 -29,40 -133,76 -149,50 -351,66 -495,37 z"
       id="path3342"
       inkscape:connector-curvature="0"
       style="fill:#ffffff" />
    <path
       d="m 1340,2150 c -102,-32 -174,-67 -257,-126 -70,-50 -104,-89 -96,-110 9,-23 29,-17 85,27 66,50 213,122 298,146 50,13 102,18 225,18 139,0 170,-3 239,-23 53,-16 82,-20 88,-14 29,29 -28,64 -156,96 -52,13 -105,17 -205,15 -116,-2 -148,-6 -221,-29 z"
       id="path3344"
       inkscape:connector-curvature="0"
       style="fill:#ffffff" />
    <path
       d="m 2465,2019 c -113,-20 -322,-61 -355,-70 -19,-5 -107,-26 -195,-48 -88,-22 -250,-70 -360,-106 -147,-49 -209,-65 -235,-61 -19,2 -89,13 -155,24 -165,28 -420,52 -542,52 -157,0 -248,-25 -303,-85 -22,-23 -25,-35 -24,-98 0,-65 7,-90 68,-242 84,-214 168,-428 240,-615 103,-266 136,-320 218,-354 48,-20 115,-20 308,1 195,21 324,22 470,4 148,-19 587,-21 685,-4 114,21 143,32 181,71 59,60 79,119 124,362 22,124 52,279 66,345 135,659 139,689 106,755 -9,19 -32,45 -51,57 -29,20 -46,23 -115,22 -45,-1 -103,-5 -131,-10 z m 209,-39 c 35,-13 66,-67 66,-115 0,-43 -94,-544 -110,-585 -5,-14 -30,-140 -55,-280 -25,-140 -49,-279 -55,-307 -13,-72 -58,-160 -97,-190 -54,-42 -164,-55 -453,-56 -150,-1 -296,4 -355,12 -55,7 -145,15 -200,18 -55,3 -112,11 -126,19 -14,7 -63,20 -109,30 -105,21 -239,66 -294,98 -72,42 -71,39 -71,410 0,374 -1,370 75,421 58,39 440,235 458,235 8,0 111,31 230,70 467,150 999,257 1096,220 z M 920,1767 c 19,-3 78,-11 130,-17 52,-6 106,-14 120,-16 14,-3 46,-7 73,-11 26,-3 47,-8 47,-12 -1,-3 -70,-39 -154,-79 -202,-98 -314,-167 -340,-212 -20,-33 -21,-51 -22,-375 -2,-401 -1,-403 88,-454 70,-41 243,-97 342,-110 115,-16 114,-25 -4,-35 -216,-20 -306,-25 -329,-20 -51,12 -102,49 -131,93 -26,41 -46,90 -146,351 -14,36 -30,74 -35,85 -5,11 -25,63 -44,115 -19,52 -40,104 -45,115 -22,47 -138,354 -150,398 -27,99 20,160 145,191 24,6 406,0 455,-7 z"
       id="path3346"
       inkscape:connector-curvature="0"
       style="fill:#ffffff" />
    <path
       d="m 2200,1808 c -25,-5 -128,-32 -229,-60 -239,-66 -233,-61 -266,-233 -13,-71 -42,-224 -65,-340 -98,-503 -93,-467 -72,-495 36,-48 127,-52 156,-7 8,12 30,95 49,185 19,90 39,168 45,174 6,6 63,15 127,19 194,13 340,76 466,200 163,161 197,369 80,490 -69,71 -167,94 -291,67 z m 180,-44 c 105,-31 162,-131 139,-244 -28,-139 -144,-280 -289,-352 -99,-50 -170,-67 -314,-78 -75,-5 -123,-13 -131,-22 -10,-10 -85,-349 -85,-381 0,-7 -100,1 -109,9 -3,3 19,122 54,299 8,39 37,189 65,335 28,146 53,277 56,293 3,15 7,27 9,27 2,0 81,23 176,50 288,83 338,91 429,64 z"
       id="path3348"
       inkscape:connector-curvature="0"
       style="fill:#ffffff" />
    <path
       d="m 1997,1596 c -54,-13 -104,-29 -111,-37 -21,-22 -81,-338 -68,-351 17,-17 214,6 287,33 83,31 157,106 179,181 21,73 20,96 -4,136 -40,66 -117,76 -283,38 z m 230,-52 c 23,-23 25,-31 19,-77 -7,-60 -44,-120 -96,-155 -59,-40 -246,-83 -278,-63 -13,8 30,244 49,267 19,23 141,51 227,53 44,1 57,-3 79,-25 z"
       id="path3350"
       inkscape:connector-curvature="0"
       style="fill:#ffffff" />
    <path
       d="m 1523,1399 c -44,-13 -62,-39 -134,-199 -34,-77 -65,-140 -69,-140 -3,0 -12,54 -19,119 -10,92 -17,124 -32,140 -44,47 -79,15 -134,-124 -24,-61 -47,-110 -52,-110 -4,0 -9,14 -11,30 -1,17 -5,54 -8,83 -10,95 -69,130 -110,66 -14,-20 -15,-37 -5,-126 6,-57 15,-157 20,-224 9,-123 20,-159 54,-170 31,-10 63,33 107,142 23,57 46,102 50,99 4,-2 10,-53 14,-112 4,-59 14,-119 22,-134 17,-35 48,-45 77,-26 22,14 327,613 327,641 0,14 -46,57 -59,55 -3,0 -20,-5 -38,-10 z m 66,-36 c -1,-5 -71,-147 -158,-318 -100,-199 -161,-310 -171,-310 -12,0 -17,32 -28,175 -7,96 -15,181 -17,188 -7,20 -35,14 -45,-10 -5,-13 -36,-88 -69,-168 -33,-79 -64,-146 -70,-148 -12,-4 -18,35 -26,168 -3,58 -10,151 -17,208 -10,88 -10,105 3,112 7,5 18,5 22,1 5,-5 13,-71 18,-147 11,-159 13,-167 35,-162 11,2 38,57 80,163 34,88 68,168 74,178 18,29 34,14 36,-34 0,-24 6,-102 12,-173 17,-201 30,-197 136,47 96,220 98,225 133,230 49,7 53,7 52,0 z"
       id="path3352"
       inkscape:connector-curvature="0"
       style="fill:#ffffff" />
    <path
       d="m 1415,2000 c -89,-24 -219,-88 -270,-133 -39,-34 -39,-36 -22,-54 17,-17 19,-17 55,5 191,118 377,156 569,116 82,-17 108,-10 87,24 -33,53 -288,78 -419,42 z"
       id="path3354"
       inkscape:connector-curvature="0"
       style="fill:#ffffff" />
  </g>
  <path
     style="fill:#ffffff;fill-opacity:1"
     d="m 206.58514,294.4824 c -8.30029,-0.29945 -19.29184,-1.00172 -23.54811,-1.50457 -6.47715,-0.76517 -16.22516,-1.63077 -26.35819,-2.34048 -10.5885,-0.7416 -13.93376,-1.28357 -19.92998,-3.22891 -2.54488,-0.82564 -8.1918,-2.29644 -12.5487,-3.26845 -22.45502,-5.00963 -39.93277,-11.2415 -46.213427,-16.47782 -4.893309,-4.07964 -5.452404,-9.46837 -5.449841,-52.52776 0.0024,-35.40955 0.525041,-45.21945 2.661581,-49.93047 1.750079,-3.85889 5.497558,-6.61281 18.271108,-13.42694 17.042249,-9.09128 47.405469,-24.06613 51.920929,-25.60689 0.98031,-0.3345 4.09946,-1.23856 6.93143,-2.009 2.83198,-0.77045 11.83294,-3.46901 20.00212,-5.99681 8.16918,-2.52778 18.68516,-5.71844 23.36883,-7.09033 38.90267,-11.395054 81.29703,-20.866341 110.1107,-24.599746 7.75024,-1.004197 20.69106,-1.428776 23.86035,-0.782833 4.46767,0.910595 8.30211,4.771247 10.24658,10.316635 1.36786,3.90108 1.18571,7.534784 -1.00424,20.033784 -4.02636,22.98013 -10.25518,54.06338 -12.69282,63.34015 -2.25057,8.56474 -5.28032,23.93527 -11.88294,60.28415 -2.08416,11.4739 -4.24056,22.59782 -4.79199,24.71988 -2.53551,9.75755 -8.45042,19.76426 -13.80749,23.35924 -4.88916,3.281 -13.68483,5.15748 -29.13954,6.21669 -5.77959,0.39613 -52.27509,0.79941 -60.00636,0.52048 z m -11.19398,-27.57256 c 1.03221,-0.47366 2.40767,-1.451 3.05657,-2.17186 1.74415,-1.93755 3.39739,-7.67005 8.12191,-28.16246 3.45959,-15.00589 4.93964,-20.29102 5.96129,-21.28751 1.21484,-1.18492 5.85951,-1.911 19.4573,-3.04168 22.8145,-1.89708 39.48264,-8.01029 55.19953,-20.24498 15.39613,-11.98501 25.24877,-26.78027 27.9138,-41.91689 3.58529,-20.36338 -8.37942,-37.55096 -28.70599,-41.23676 -3.59111,-0.65117 -12.1258,-0.54866 -16.76491,0.20136 -5.49833,0.88892 -22.88225,5.26692 -44.03362,11.0895 -17.03068,4.68824 -21.62958,7.04187 -24.3619,12.46792 -1.5944,3.16635 -2.66811,7.57349 -5.75283,23.61323 -1.43022,7.43678 -5.52473,28.21148 -9.09891,46.16596 -9.75092,48.98256 -10.84182,55.07363 -10.33223,57.69129 0.30467,1.56521 2.98683,4.62344 5.12847,5.84759 3.99377,2.28286 10.41392,2.72796 14.21152,0.98529 z m -56.48261,-8.34685 c 1.90069,-1.39073 11.29008,-18.18682 26.1132,-46.71233 13.20405,-25.40974 19.58084,-38.63465 19.58084,-40.60882 0,-1.02626 -3.72533,-5.11342 -5.80152,-6.36495 -1.0715,-0.64593 -1.7595,-0.78478 -3.03979,-0.61343 -2.64087,0.35342 -7.18216,1.99397 -8.75157,3.16153 -3.00281,2.23396 -6.73513,8.72086 -13.89124,24.14355 -4.69225,10.11267 -9.25269,19.23477 -9.77279,19.54831 -0.21141,0.12748 -0.4566,0.16122 -0.54491,0.0752 -0.28282,-0.27586 -1.72115,-9.55637 -2.56235,-16.53281 -1.60724,-13.33003 -2.32297,-16.12396 -4.80277,-18.74795 -3.64034,-3.85205 -7.18278,-3.0421 -10.83032,2.47622 -2.35313,3.56001 -3.75014,6.36737 -6.99377,14.05415 -3.99529,9.46811 -6.90988,15.35267 -7.60407,15.35267 -0.86857,0 -1.40084,-1.9266 -1.85513,-6.71479 -0.94312,-9.94035 -1.46071,-12.91496 -2.76278,-15.87772 -1.92938,-4.3902 -5.1666,-6.57674 -8.356767,-5.64449 -1.924356,0.56235 -4.510805,2.98643 -5.535781,5.18822 -1.043401,2.24141 -0.988395,7.10272 0.212766,18.79919 0.534599,5.20576 1.522085,15.8104 2.194437,23.56589 0.672375,7.75549 1.560826,15.73188 1.97438,17.72528 1.340269,6.46028 3.473163,9.31754 6.955355,9.31754 3.97592,0 7.27133,-4.6252 13.6251,-19.12313 3.46094,-7.89712 6.3148,-13.44173 6.94387,-13.49086 0.58693,-0.0459 1.23911,4.13074 1.95579,12.52503 1.56466,18.32623 2.79592,22.61005 7.16002,24.9111 1.55838,0.8217 5.00732,0.59903 6.3898,-0.4125 z"
     id="path3368"
     inkscape:connector-curvature="0" />
  <path
     style="fill:#ffffff;fill-opacity:1"
     d="m 221.60166,186.18207 c -2.23317,-0.52071 -2.26209,-0.5858 -1.96344,-4.41939 0.33098,-4.24866 2.14221,-14.99057 3.59502,-21.32143 1.54987,-6.7536 2.86494,-10.54875 4.01578,-11.58905 1.9693,-1.78013 9.34063,-3.96301 18.94429,-5.60998 6.95522,-1.19279 17.89401,-1.31421 19.94838,-0.22142 2.0303,1.07999 4.77924,3.71218 5.68461,5.44315 0.71066,1.35866 0.77987,1.98493 0.55862,5.05488 -0.78345,10.87074 -7.14663,20.50544 -16.58705,25.11494 -6.53128,3.18903 -19.08261,6.58249 -27.82433,7.52275 -3.99301,0.4295 -4.62858,0.43206 -6.37188,0.0255 l 0,1e-5 z"
     id="path3370"
     inkscape:connector-curvature="0" />
  <path
     style="fill:#ffffff;fill-opacity:1"
     d="M 79.838996,300.51186 C 71.99101,299.36061 65.183853,294.9633 60.454653,287.98994 55.553589,280.76313 51.537437,271.77713 38.252796,238.31399 31.872622,222.24273 17.632725,186.7121 9.609076,166.84368 0.78752931,144.99947 0.29217241,143.1238 0.49359591,132.32777 c 0.1563339,-8.37925 0.2954769,-8.74963 4.84318009,-12.89208 6.299427,-5.73808 15.076706,-8.66113 29.3074,-9.76014 17.941594,-1.38559 53.439241,1.4737 90.942274,7.3253 17.51194,2.73241 18.20548,2.81826 20.57345,2.54723 4.21227,-0.48213 11.25801,-2.40255 26.56024,-7.23939 42.80685,-13.530694 77.1747,-21.977877 122.23245,-30.043231 10.94669,-1.959452 14.18257,-2.306095 24.31778,-2.605037 9.38572,-0.276844 12.48184,0.08889 15.93043,1.881675 3.45907,1.798257 7.20165,5.690624 9.05653,9.418999 3.97167,7.98313 3.21089,14.162684 -9.00895,73.178294 -7.36681,35.57799 -11.28264,55.06884 -14.78564,73.5951 -6.4947,34.34842 -9.20195,42.41414 -16.93164,50.44483 -3.82506,3.97402 -6.7321,5.83526 -11.38424,7.28877 -4.82717,1.50818 -14.03451,3.33798 -19.40292,3.85595 -9.08378,0.87648 -32.84153,1.25518 -52.19294,0.83193 -20.34495,-0.44499 -28.07716,-0.83712 -38.72097,-1.96377 -13.02136,-1.37833 -19.12376,-1.64596 -32.47869,-1.42436 -12.50648,0.20749 -18.16354,0.5699 -34.65715,2.2202 -18.257772,1.82678 -29.453493,2.31625 -34.855194,1.52382 z m 17.625639,-3.4757 c 12.395735,-0.88977 33.727255,-2.78238 36.992015,-3.28209 6.6706,-1.02096 5.7524,-1.52849 -6.26073,-3.46038 -16.88932,-2.71607 -36.00141,-8.51073 -47.314565,-14.34548 -9.531209,-4.91569 -11.529144,-7.39165 -13.044907,-16.16599 -0.603009,-3.49057 -0.672075,-8.13874 -0.672075,-45.22728 0,-45.43638 0.05733,-46.77243 2.191566,-51.05148 2.351728,-4.71517 9.737811,-10.20907 24.350396,-18.11225 3.047366,-1.64815 14.407945,-7.32606 25.245725,-12.61756 10.83778,-5.29149 19.70507,-9.76929 19.70507,-9.95065 0,-0.44103 -2.84702,-1.06704 -8.02268,-1.76406 -2.34295,-0.31551 -5.90768,-0.83162 -7.92163,-1.1469 -6.91166,-1.082 -34.953204,-4.51713 -39.626067,-4.85428 -7.556117,-0.54515 -46.258304,-1.22536 -53.154055,-0.93421 -5.725618,0.24173 -6.738726,0.39516 -10.496163,1.5896 -5.474565,1.74027 -9.419432,3.97658 -12.2846017,6.96401 -3.3194369,3.46109 -4.1489373,5.70708 -4.1126741,11.13564 0.024807,3.71472 0.1918556,4.73583 1.3271481,8.11285 3.0995985,9.21999 14.7350017,39.25348 20.1303717,51.96084 1.759208,4.14334 4.828417,11.79261 6.820466,16.99836 1.99205,5.20573 4.879891,12.42037 6.417426,16.03252 1.537534,3.61214 5.70444,13.91313 9.259792,22.89107 10.691697,26.9986 13.416969,32.91503 17.281847,37.51803 3.333048,3.96961 9.436008,8.02578 14.374434,9.55356 1.960603,0.60655 11.442723,0.68524 18.813891,0.15613 z m 98.541795,-36.1221 c 0.5371,-5.38955 8.43842,-40.48644 10.98704,-48.80331 0.52831,-1.72399 0.84776,-2.14636 1.96916,-2.60337 1.93018,-0.78661 7.64023,-1.59855 16.04029,-2.28089 15.22738,-1.23692 23.34731,-2.55928 31.11063,-5.06648 22.25926,-7.18865 40.27555,-21.9604 49.28122,-40.40615 6.15567,-12.60826 6.84349,-23.31864 2.10304,-32.74771 -1.95149,-3.88161 -7.00451,-8.89137 -11.00214,-10.90794 -6.11249,-3.08339 -12.75155,-4.42191 -20.12921,-4.05828 -8.18876,0.40361 -16.25005,2.29318 -51.16549,11.99317 -16.54218,4.59564 -18.66816,5.27405 -19.08549,6.0902 -0.25831,0.50515 -3.2536,15.08659 -6.65616,32.40322 -3.40258,17.31662 -8.05462,40.78557 -10.33784,52.1532 -5.78305,28.79242 -7.73028,39.23017 -7.81372,41.88401 -0.0706,2.2498 -0.0527,2.29056 1.15158,2.6026 2.30008,0.59602 6.69602,1.01586 10.06489,0.96127 l 3.36671,-0.0546 0.11549,-1.15898 z m -59.39912,-7.82311 c 3.85471,-5.54425 12.01677,-20.68515 30.14557,-55.92107 7.42106,-14.42388 13.49281,-26.56194 13.49281,-26.97348 0,-0.69635 -0.19925,-0.7294 -2.87159,-0.47627 -5.12772,0.48571 -6.70947,0.96252 -8.16041,2.45987 -1.69485,1.74908 -5.46798,9.36714 -13.52542,27.30823 -7.38632,16.44672 -11.4542,24.44676 -13.4944,26.53863 -1.65475,1.69665 -2.02724,1.77402 -3.10571,0.64493 -1.57096,-1.64468 -2.59003,-8.4927 -3.98779,-26.79724 -0.4543,-5.94942 -0.97867,-12.81636 -1.16528,-15.25988 -0.34384,-4.50222 -0.86425,-6.35202 -1.89565,-6.73806 -1.88814,-0.7067 -3.27746,1.96291 -11.85027,22.77059 -3.23905,7.86174 -7.04816,16.54192 -8.46466,19.2893 -2.66561,5.17006 -3.99417,6.68865 -5.45587,6.23614 -1.63847,-0.50722 -2.10932,-3.08993 -3.24499,-17.79893 -1.12387,-14.55673 -1.87184,-21.32654 -2.63566,-23.85561 -0.33607,-1.1128 -2.689672,-0.89456 -3.686781,0.34184 -1.076944,1.3354 -1.060542,2.8189 0.158011,14.29478 1.21828,11.47346 1.632358,16.37697 2.393438,28.34214 1.124152,17.6733 1.968292,23.18166 3.477322,22.69104 1.01528,-0.33011 5.68577,-10.34073 13.83089,-29.64492 6.37272,-15.10355 6.13641,-14.62218 7.60759,-15.4972 1.51873,-0.90331 2.28288,-0.91519 3.37153,-0.0524 1.12308,0.89006 1.23354,1.74014 3.18418,24.50244 1.89466,22.10893 2.43896,25.81653 3.79005,25.81653 0.30176,0 1.24365,-0.99962 2.09309,-2.22137 z"
     id="path3372"
     inkscape:connector-curvature="0" />
  <path
     style="fill:#ffffff;fill-opacity:1"
     d="m 212.70672,191.16497 c -0.70441,-0.68705 -0.77846,-1.10193 -0.56879,-3.18717 1.25166,-12.44916 6.37091,-37.19723 8.87134,-42.88684 0.87538,-1.99186 1.48905,-2.38099 6.17211,-3.91374 9.16472,-2.99955 21.20681,-5.261 29.42415,-5.52565 6.64861,-0.21415 9.55008,0.15236 13.00542,1.64284 5.92782,2.557 10.5849,10.10791 9.8616,15.98946 -0.4633,3.76733 -2.19403,9.78079 -3.73584,12.98032 -3.77817,7.84032 -12.16377,15.70505 -20.83323,19.53914 -7.04248,3.11455 -25.01591,6.13899 -36.53492,6.1478 -4.36209,0.002 -4.93378,-0.0759 -5.66184,-0.78616 z"
     id="path3374"
     inkscape:connector-curvature="0" />
</svg>
