<?xml version="1.0" encoding="iso-8859-1"?>
<!-- Generator: Adobe Illustrator 16.0.0, SVG Export Plug-In . SVG Version: 6.00 Build 0)  -->
<!DOCTYPE svg PUBLIC "-//W3C//DTD SVG 1.1//EN" "http://www.w3.org/Graphics/SVG/1.1/DTD/svg11.dtd">
<svg version="1.1" id="Capa_1" xmlns="http://www.w3.org/2000/svg" xmlns:xlink="http://www.w3.org/1999/xlink" x="0px" y="0px"
	 width="433.702px" height="433.702px" viewBox="0 0 433.702 433.702" style="enable-background:new 0 0 433.702 433.702;"
	 xml:space="preserve">
<g>
	<path d="M243.523,71.26l121.099,121.098l-62.403,62.411c-11.757,11.759-47.475,34.394-73.128,40.771
		c-0.886,2.835-2.363,5.527-4.618,7.78c-7.403,7.399-19.412,7.399-26.81,0l-0.877-0.88l-42.389,42.392l-19.933-19.929
		L27.834,431.525L0,403.689l106.628-106.627L86.08,276.515l42.706-42.709c-4.728-7.344-3.892-17.225,2.528-23.649
		c1.968-1.967,4.265-3.374,6.709-4.293c7.076-24.559,32.005-61.123,43.089-72.211L243.523,71.26z M358.426,166.936l-89.483-89.483
		l75.279-75.275l89.479,89.486L358.426,166.936z M370.744,87.253l18.055,18.046l13.536-13.538l-18.052-18.046L370.744,87.253z
		 M346.333,62.401l13.54-13.538l-18.047-18.051l-13.54,13.539L346.333,62.401z"/>
</g>
<g>
</g>
<g>
</g>
<g>
</g>
<g>
</g>
<g>
</g>
<g>
</g>
<g>
</g>
<g>
</g>
<g>
</g>
<g>
</g>
<g>
</g>
<g>
</g>
<g>
</g>
<g>
</g>
<g>
</g>
</svg>
