<?xml version="1.0" encoding="UTF-8" standalone="no"?>
<!-- Generator: Adobe Illustrator 16.0.0, SVG Export Plug-In . SVG Version: 6.00 Build 0)  -->

<svg
   xmlns:dc="http://purl.org/dc/elements/1.1/"
   xmlns:cc="http://creativecommons.org/ns#"
   xmlns:rdf="http://www.w3.org/1999/02/22-rdf-syntax-ns#"
   xmlns:svg="http://www.w3.org/2000/svg"
   xmlns="http://www.w3.org/2000/svg"
   xmlns:sodipodi="http://sodipodi.sourceforge.net/DTD/sodipodi-0.dtd"
   xmlns:inkscape="http://www.inkscape.org/namespaces/inkscape"
   version="1.1"
   id="Capa_1"
   x="0px"
   y="0px"
   width="433.702px"
   height="433.702px"
   viewBox="0 0 433.702 433.702"
   style="enable-background:new 0 0 433.702 433.702;"
   xml:space="preserve"
   inkscape:version="0.48.5 r10040"
   sodipodi:docname="usb-white.svg"><metadata
     id="metadata41"><rdf:RDF><cc:Work
         rdf:about=""><dc:format>image/svg+xml</dc:format><dc:type
           rdf:resource="http://purl.org/dc/dcmitype/StillImage" /></cc:Work></rdf:RDF></metadata><defs
     id="defs39" /><sodipodi:namedview
     pagecolor="#ffffff"
     bordercolor="#666666"
     borderopacity="1"
     objecttolerance="10"
     gridtolerance="10"
     guidetolerance="10"
     inkscape:pageopacity="0"
     inkscape:pageshadow="2"
     inkscape:window-width="1155"
     inkscape:window-height="767"
     id="namedview37"
     showgrid="false"
     inkscape:zoom="0.54415244"
     inkscape:cx="-108.4255"
     inkscape:cy="178.5416"
     inkscape:window-x="101"
     inkscape:window-y="106"
     inkscape:window-maximized="0"
     inkscape:current-layer="g3" /><g
     id="g3"><path
       d="M243.523,71.26l121.099,121.098l-62.403,62.411c-11.757,11.759-47.475,34.394-73.128,40.771   c-0.886,2.835-2.363,5.527-4.618,7.78c-7.403,7.399-19.412,7.399-26.81,0l-0.877-0.88l-42.389,42.392l-19.933-19.929   L27.834,431.525L0,403.689l106.628-106.627L86.08,276.515l42.706-42.709c-4.728-7.344-3.892-17.225,2.528-23.649   c1.968-1.967,4.265-3.374,6.709-4.293c7.076-24.559,32.005-61.123,43.089-72.211L243.523,71.26z M358.426,166.936l-89.483-89.483   l75.279-75.275l89.479,89.486L358.426,166.936z M370.744,87.253l18.055,18.046l13.536-13.538l-18.052-18.046L370.744,87.253z    M346.333,62.401l13.54-13.538l-18.047-18.051l-13.54,13.539L346.333,62.401z"
       id="path5"
       style="fill:#ffffff;fill-opacity:1" /></g><g
     id="g7" /><g
     id="g9" /><g
     id="g11" /><g
     id="g13" /><g
     id="g15" /><g
     id="g17" /><g
     id="g19" /><g
     id="g21" /><g
     id="g23" /><g
     id="g25" /><g
     id="g27" /><g
     id="g29" /><g
     id="g31" /><g
     id="g33" /><g
     id="g35" /></svg>