<?xml version="1.0" encoding="UTF-8" standalone="no"?>
<svg
   xmlns:dc="http://purl.org/dc/elements/1.1/"
   xmlns:cc="http://creativecommons.org/ns#"
   xmlns:rdf="http://www.w3.org/1999/02/22-rdf-syntax-ns#"
   xmlns:svg="http://www.w3.org/2000/svg"
   xmlns="http://www.w3.org/2000/svg"
   xmlns:sodipodi="http://sodipodi.sourceforge.net/DTD/sodipodi-0.dtd"
   xmlns:inkscape="http://www.inkscape.org/namespaces/inkscape"
   id="15637048-ed07-48b0-9f0b-18e61ad929ff"
   data-name="Layer 1"
   width="284"
   height="64"
   viewBox="0 0 284 64"
   enable-background="new 0 0 30 30"
   xml:space="preserve"
   aria-labelledby="title desc"
   version="1.1"
   inkscape:version="0.48.5 r10040"
   sodipodi:docname="aurecon.svg"><metadata
     id="metadata13"><rdf:RDF><cc:Work
         rdf:about=""><dc:format>image/svg+xml</dc:format><dc:type
           rdf:resource="http://purl.org/dc/dcmitype/StillImage" /></cc:Work></rdf:RDF></metadata><defs
     id="defs11" /><sodipodi:namedview
     pagecolor="#ffffff"
     bordercolor="#666666"
     borderopacity="1"
     objecttolerance="10"
     gridtolerance="10"
     guidetolerance="10"
     inkscape:pageopacity="0"
     inkscape:pageshadow="2"
     inkscape:window-width="1034"
     inkscape:window-height="775"
     id="namedview9"
     showgrid="false"
     inkscape:zoom="1.1725352"
     inkscape:cx="-10.660661"
     inkscape:cy="32"
     inkscape:window-x="123"
     inkscape:window-y="768"
     inkscape:window-maximized="0"
     inkscape:current-layer="15637048-ed07-48b0-9f0b-18e61ad929ff" /><title
     id="title">Aurecon - Global Expert Consulting Engineers</title><desc
     id="desc">Aurecon is the global leader in consulting engineering.</desc><path
     fill="#79B843"
     d="M21.2,1.2c0,7.8,0.1,10.6-3,13.7c-2.3,2.3-6.2,3.1-9.1,2c-1-0.4-1.9-0.9-2.6-1.7c-3-3.1-2.7-8.4,0.4-11.5     C10.6-0.2,15.7,0,21.2,0L21.2,1.2L21.2,1.2z"
     id="path5" /><path
     fill="#353D30"
     d="M74.9,58.5c3.3,2,8.2,3.1,12.2,3V20.7H73.8v26.9c-2.1,1.7-5.3,2.9-7.7,2.8c-3.3-0.1-3.9-1.8-4-5.1V20.8H48.7     v26.8c0,4.5,1,8.2,3.2,10.9s5.6,4.2,10.2,4.2C66.6,62.7,70.9,61.4,74.9,58.5z M106.1,23.8c-3.3-2-8.2-3.1-12.2-3v40.7h13.4V34.6     c1.7-1.6,5.2-3,9.9-2.8l2.6-11.8C112.8,19.3,107.6,22.7,106.1,23.8z M220.1,19.7c-13.4,0-21.3,9.2-21.3,21.4     c0,6.2,1.6,11.5,5.1,15.4c3.4,3.9,8.7,6.2,15.7,6.1c13.4,0,21.3-9.2,21.3-21.4c0-6.1-1.6-11.5-5.1-15.4S227.1,19.7,220.1,19.7     L220.1,19.7z M219.7,51.8c-5.5,0-7.1-4.9-7.1-10.9c0.1-5.9,1.8-10.5,7.4-10.5c5.5,0,7.1,4.7,7.1,10.7C227,47,225.2,51.8,219.7,51.8z      M257.2,23.7c-3.3-2-8.2-3.1-12.2-3v40.8h13.4V34.6c2.1-1.7,5.3-2.9,7.7-2.8c3.3,0.1,3.9,1.8,4,5.1v24.6h13.4V34.6     c0-4.5-1-8.2-3.2-10.9s-5.6-4.2-10.2-4.2C265.6,19.6,261.3,20.9,257.2,23.7L257.2,23.7z M143.4,51.7c-4.5-0.1-8.6-2.4-9.7-6.8h25.5     v-4c0-5.7-0.8-11.5-5-16c-3.1-3.4-7.7-5.4-13-5.4c-12.8,0-21.6,8.6-21.6,21.5c0,6.6,2.1,12,5.9,15.8c3.8,3.7,9.2,5.8,15.8,5.8     c7.5,0,13.4-2,17.6-3.7l-2.8-9.5C150.3,51.1,145.9,51.8,143.4,51.7L143.4,51.7z M140.4,30.2c3.6,0,5.4,2.8,5.6,5.9h-12.2     C134.5,32.8,136.9,30.2,140.4,30.2z M185.4,51.9c-5.3-0.1-8.5-3.6-8.6-10.8c0.1-6.8,3.1-10.6,9.1-10.6c2.1,0,4.6,0.4,9.5,2.4     l2.2-10.3c0,0-5.7-3-13.3-3c-6.6,0-12,2.1-15.7,6s-5.7,9.4-5.7,16.1c0,6.5,1.9,11.8,5.5,15.3c3.6,3.6,8.7,5.5,15,5.5h0.1     c4.3,0,8.5-0.4,14.9-3.3c-0.5-1.8-2.3-7.5-2.9-9.8C192.4,50.8,188.8,51.9,185.4,51.9z M45.8,61.4c-3.5-4.1-3.8-9.9-3.8-14.2V20.8     H24.4c-7.2,0-13.8,2.2-18.6,7C2.2,31.4,0.2,36.6,0,41.7v1.1c0.1,5.6,2,10.8,5.7,14.6c3.6,3.6,8.4,5.4,13.6,5.4h1.2     c4.3,0,8.5-1.2,13-4.3c3.3,2,8.2,3.2,12.2,3.1v-0.2H45.8L45.8,61.4z M27.7,47.7c-2.3,2.3-6.2,3.1-9.1,2c-1-0.3-1.9-0.9-2.6-1.7     c-3-3.1-2.7-8.4,0.4-11.5c3.8-3.9,8.9-3.7,14.4-3.7V34C30.6,41.8,30.7,44.6,27.7,47.7L27.7,47.7z"
     id="path7"
     style="fill:#ffffff;fill-opacity:1" /></svg>