<?xml version="1.0" encoding="UTF-8" standalone="no"?>
<svg
   xmlns:dc="http://purl.org/dc/elements/1.1/"
   xmlns:cc="http://creativecommons.org/ns#"
   xmlns:rdf="http://www.w3.org/1999/02/22-rdf-syntax-ns#"
   xmlns:svg="http://www.w3.org/2000/svg"
   xmlns="http://www.w3.org/2000/svg"
   xmlns:sodipodi="http://sodipodi.sourceforge.net/DTD/sodipodi-0.dtd"
   xmlns:inkscape="http://www.inkscape.org/namespaces/inkscape"
   width="152pt"
   height="152pt"
   viewBox="0 0 152 152"
   version="1.1"
   id="svg2"
   inkscape:version="0.48.2 r9819"
   sodipodi:docname="logo_red.svg">
  <metadata
     id="metadata24">
    <rdf:RDF>
      <cc:Work
         rdf:about="">
        <dc:format>image/svg+xml</dc:format>
        <dc:type
           rdf:resource="http://purl.org/dc/dcmitype/StillImage" />
        <dc:title></dc:title>
      </cc:Work>
    </rdf:RDF>
  </metadata>
  <defs
     id="defs22" />
  <sodipodi:namedview
     pagecolor="#ffffff"
     bordercolor="#666666"
     borderopacity="1"
     objecttolerance="10"
     gridtolerance="10"
     guidetolerance="10"
     inkscape:pageopacity="0"
     inkscape:pageshadow="2"
     inkscape:window-width="1281"
     inkscape:window-height="920"
     id="namedview20"
     showgrid="false"
     inkscape:zoom="2.4842105"
     inkscape:cx="34.912829"
     inkscape:cy="111.26212"
     inkscape:window-x="151"
     inkscape:window-y="0"
     inkscape:window-maximized="0"
     inkscape:current-layer="svg2" />
  <path
     style="fill:#ffffff;fill-opacity:1"
     d="m 134.225,7.184322 c -2.00594,0.00688 -4.02,0.0125 -6.025,0.05 -2.17,-0.08 -4.53,0.955 -5.3,3.125 -0.94,3.06 -0.7,6.315 -0.8,9.475 -4.53,0.96 -9.055,2.865 -11.975,6.625 -5.49,6.35 -5.27,16.65 0.5,22.75 2.82,3.38 7.04,4.99 11.2,6 -0.04,2.87 0.19,5.775 -0.25,8.625 -1.08,1.27 -2.83,0.965 -4.3,1.075 -5.86,-0.01 -11.715,-0.01 -17.575,-0.05 -1.46,-2.06 -2.91,-4.585 -5.6,-5.125 -4.75,-1.62 -10.235,2.765 -9.625,7.775 0.17,4.63 5.295,8.065 9.675,6.625 2.66,-0.58 4.07,-3.07 5.55,-5.1 1.75,-0.01 3.515,-0.015 5.275,-0.025 -0.02,4.26 -0.015,8.515 -0.025,12.775 -12.08,0 -24.17,-0.01 -36.25,0 -0.18,-6.4 0.3,-12.82 -0.2,-19.2 -0.58,-4.4 -5.085,-7.04 -9.225,-7.15 -8.25,-0.31 -16.515,0.02 -24.775,-0.15 -1.49,-2.06 -2.985,-4.535 -5.675,-5.075 -4.6,-1.37 -9.895,2.58 -9.475,7.45 -0.17,4.94 5.46,8.71 10,6.9 2.51,-0.68 3.79,-3.115 5.2,-5.075 7.91,-0.02 15.84,-0.145 23.75,0.025 2.55,0.02 6,1.07 6.1,4.15 0.32,6.03 -0.01,12.07 0.1,18.1 -4.03,0.24 -8.76,-0.86 -12.1,2 -3.05,2.7 -3.305,7.1 -3.375,10.9 0,10.330008 0.025,20.669998 0.025,30.999998 -0.09,2.07 -0.07,4.56 -1.9,5.95 -2.01,1.37 -4.58,1.16 -6.9,1.25 -13.32,-0.1 -26.655,-0.075 -39.975,-0.125 l 0,4.075 c 13.68,-0.01 27.37,0.09 41.05,0.15 3.28,-0.01 6.945,-0.42 9.325,-2.95 2.21,-2.19 2.55,-5.45 2.55,-8.4 0.01,-10.35 -0.06,-20.69999 0,-31.049998 0.2,-2.5 0.04,-5.325 1.65,-7.425 1.33,-1.51 3.56,-1.115 5.35,-1.275 14.92,0.05 29.83,0.01 44.75,0 -0.05,3.06 0.295,6.185 -0.275,9.225 -0.79,2.160008 -3.335,2.72 -5.375,2.8 -7.91,0.27 -15.84,-0.18 -23.75,0.15 -3.35,0.09 -6.42,2.479998 -7.35,5.699998 -1.2,4.22 -0.565,8.67 -0.725,13 -1.87,1.39 -4.155,2.615 -4.925,4.975 -1.6,3.84 0.87,8.635 4.85,9.725 4.87,1.82 10.625,-2.76 9.775,-7.95 -0.04,-3.32 -3.01,-5.24 -5.5,-6.8 0.41,-4.52 -1.37,-10.12 1.95,-13.8 3.73,-1.59 8.045,-0.575 12.025,-0.825 -0.01,14.52 0.01,29.03 0,43.55 l 4.175,0 c 0,-14.52 0.01,-29.055 0,-43.575 4.11,-0.04 8.28,0.345 12.35,-0.375 3.81,-0.64 7.1,-4.03499 6.9,-8.024998 0.09,-8.21 -0.015,-16.415 0.025,-24.625 4.57,-0.24 9.38,0.77 13.75,-0.85 4.57,-2.63 2.785,-8.635 3.125,-12.925 4.1,-1 8.285,-2.55 11.125,-5.85 5.6,-5.8 6.185,-15.555 1.375,-22.025 -2.77,-4.13 -7.46,-6.315 -12.15,-7.475 0.12,-2.85 0.195,-5.685 0.425,-8.525 8.51,-0.05 17.015,-0.025 25.525,-0.025 l 0,-4.125 c -6.015,0.0375 -12.03218,-0.045625 -18.05,-0.025 z m -11.825,16.775 0,3.825 c -4.81802,0.67922 -8.525,4.820842 -8.525,9.825 0,5.004158 3.70698,9.124388 8.525,9.8 l 0,3.75 c -6.86819,-0.723826 -12.225,-6.541324 -12.225,-13.6 0,-7.058676 5.35681,-12.876174 12.225,-13.6 z m 2.725,0 c 6.94835,0.643629 12.375,6.482231 12.375,13.6 0,7.117769 -5.42665,12.956371 -12.375,13.6 l 0,-3.75 c 4.8507,-0.643386 8.575,-4.770116 8.575,-9.8 0,-5.029884 -3.7243,-9.178166 -8.575,-9.825 l 0,-3.825 z m -2.725,7.625 0,3.825 c -0.62201,0.433664 -1.025,1.159243 -1.025,1.975 0,0.815757 0.40299,1.541336 1.025,1.975 l 0,3.925 c -2.67155,-0.606626 -4.675,-2.994858 -4.675,-5.85 0,-2.855142 2.00345,-5.243374 4.675,-5.85 z m 2.725,0.025 c 2.63278,0.634665 4.6,2.99735 4.6,5.825 0,2.82765 -1.96722,5.190335 -4.6,5.825 l 0,-3.875 c 0.63841,-0.431298 1.05,-1.171573 1.05,-2 0,-0.828427 -0.41159,-1.568702 -1.05,-2 l 0,-3.775 z"
     id="path6"
     inkscape:connector-curvature="0" />
  <rect
     style="fill:#ffffff;fill-opacity:1;stroke:none"
     id="rect2984"
     width="4.1864405"
     height="20.288136"
     x="85.661018"
     y="133" />
</svg>
