<svg xmlns="http://www.w3.org/2000/svg" width="152pt" height="152pt" viewBox="0 0 152 152"><path fill="#b7270f" fill-opacity=".941" d="M0 0h152.966v153.288H0z"/><path d="M134.225 7.184c-2.006.007-4.02.013-6.025.05-2.17-.08-4.53.955-5.3 3.125-.94 3.06-.7 6.314-.8 9.474-4.53.96-9.055 2.865-11.975 6.625-5.49 6.35-5.27 16.65.5 22.75 2.82 3.38 7.04 4.99 11.2 6-.04 2.87.19 5.774-.25 8.624-1.08 1.27-2.83.965-4.3 1.075-5.86-.01-11.715-.01-17.575-.05-1.46-2.06-2.91-4.586-5.6-5.126-4.75-1.62-10.235 2.765-9.625 7.775.17 4.63 5.295 8.064 9.675 6.624 2.66-.58 4.07-3.07 5.55-5.1 1.75-.01 3.515-.015 5.275-.025-.02 4.26-.015 8.514-.025 12.774-12.08 0-24.17-.01-36.25 0-.18-6.4.3-12.82-.2-19.2-.58-4.4-5.085-7.04-9.225-7.15-8.25-.31-16.515.02-24.775-.15-1.49-2.06-2.985-4.535-5.675-5.075-4.6-1.37-9.895 2.58-9.475 7.45-.17 4.94 5.46 8.71 10 6.9 2.51-.68 3.79-3.116 5.2-5.076 7.91-.02 15.84-.145 23.75.025 2.55.02 6 1.07 6.1 4.15.32 6.03-.01 12.07.1 18.1-4.03.24-8.76-.86-12.1 2-3.05 2.7-3.305 7.1-3.375 10.9 0 10.33.025 20.67.025 31-.09 2.07-.07 4.56-1.9 5.95-2.01 1.37-4.58 1.16-6.9 1.25-13.32-.1-26.655-.076-39.975-.126v4.075c13.68-.01 27.37.09 41.05.15 3.28-.01 6.945-.42 9.325-2.95 2.21-2.19 2.55-5.45 2.55-8.4.01-10.35-.06-20.7 0-31.05.2-2.5.04-5.326 1.65-7.426 1.33-1.51 3.56-1.115 5.35-1.275 14.92.05 29.83.01 44.75 0-.05 3.06.295 6.184-.275 9.224-.79 2.16-3.335 2.72-5.375 2.8-7.91.27-15.84-.18-23.75.15-3.35.09-6.42 2.48-7.35 5.7-1.2 4.22-.565 8.67-.725 13-1.87 1.39-4.155 2.615-4.925 4.975-1.6 3.84.87 8.634 4.85 9.724 4.87 1.82 10.625-2.76 9.775-7.95-.04-3.32-3.01-5.24-5.5-6.8.41-4.52-1.37-10.12 1.95-13.8 3.73-1.59 8.045-.575 12.025-.825-.01 14.52.01 29.03 0 43.55h4.175c0-14.52.01-29.056 0-43.576 4.11-.04 8.28.345 12.35-.375 3.81-.64 7.1-4.036 6.9-8.026.09-8.21-.015-16.415.025-24.625 4.57-.24 9.38.77 13.75-.85 4.57-2.63 2.785-8.636 3.125-12.926 4.1-1 8.285-2.55 11.125-5.85 5.6-5.8 6.185-15.555 1.375-22.025-2.77-4.13-7.46-6.316-12.15-7.476.12-2.85.195-5.685.425-8.525 8.51-.05 17.015-.026 25.525-.026V7.21c-6.015.037-12.032-.046-18.05-.026zM122.4 23.96v3.824c-4.818.68-8.525 4.82-8.525 9.825 0 5.003 3.707 9.124 8.525 9.8v3.75c-6.868-.725-12.225-6.542-12.225-13.6 0-7.06 5.357-12.877 12.225-13.6zm2.725 0c6.948.643 12.375 6.482 12.375 13.6 0 7.117-5.427 12.956-12.375 13.6v-3.75c4.85-.644 8.575-4.77 8.575-9.8 0-5.03-3.724-9.18-8.575-9.826V23.96zm-2.725 7.624v3.825c-.622.433-1.025 1.16-1.025 1.974 0 .816.403 1.542 1.025 1.975v3.924c-2.672-.606-4.675-2.995-4.675-5.85 0-2.855 2.003-5.243 4.675-5.85zm2.725.025c2.633.634 4.6 2.997 4.6 5.824 0 2.828-1.967 5.19-4.6 5.825v-3.876c.638-.43 1.05-1.17 1.05-2 0-.828-.412-1.568-1.05-2V31.61z" fill="#fff"/><path fill="#fff" d="M85.66 133h4.187v20.288H85.66z"/></svg>