<?xml version="1.0" encoding="UTF-8" standalone="no"?>
<!-- Generator: Adobe Illustrator 15.0.0, SVG Export Plug-In . SVG Version: 6.00 Build 0)  -->

<svg
   xmlns:dc="http://purl.org/dc/elements/1.1/"
   xmlns:cc="http://creativecommons.org/ns#"
   xmlns:rdf="http://www.w3.org/1999/02/22-rdf-syntax-ns#"
   xmlns:svg="http://www.w3.org/2000/svg"
   xmlns="http://www.w3.org/2000/svg"
   xmlns:sodipodi="http://sodipodi.sourceforge.net/DTD/sodipodi-0.dtd"
   xmlns:inkscape="http://www.inkscape.org/namespaces/inkscape"
   version="1.1"
   id="Layer_1"
   x="0px"
   y="0px"
   width="79.262px"
   height="90.327px"
   viewBox="0 0 79.262 90.327"
   enable-background="new 0 0 79.262 90.327"
   xml:space="preserve"
   inkscape:version="0.48.2 r9819"
   sodipodi:docname="avsupport.svg"><metadata
   id="metadata9200"><rdf:RDF><cc:Work
       rdf:about=""><dc:format>image/svg+xml</dc:format><dc:type
         rdf:resource="http://purl.org/dc/dcmitype/StillImage" /></cc:Work></rdf:RDF></metadata><defs
   id="defs9198" /><sodipodi:namedview
   pagecolor="#ffffff"
   bordercolor="#666666"
   borderopacity="1"
   objecttolerance="10"
   gridtolerance="10"
   guidetolerance="10"
   inkscape:pageopacity="0"
   inkscape:pageshadow="2"
   inkscape:window-width="1394"
   inkscape:window-height="821"
   id="namedview9196"
   showgrid="false"
   inkscape:zoom="2.6127292"
   inkscape:cx="-28.114252"
   inkscape:cy="45.163502"
   inkscape:window-x="0"
   inkscape:window-y="0"
   inkscape:window-maximized="0"
   inkscape:current-layer="Layer_1" />
<g
   id="g9172"
   transform="matrix(0.76338806,0,0,0.84322034,9.1857968,7.2720892)">
	<g
   id="g9174">
		<g
   id="g9176">
			<path
   d="m 40.432,6.692 c 0.043,0 0.081,0 0.104,0.002 l 3.335,0.375 V 6.882 C 47.8,7.444 54.438,9.63 55.25,17.943 c 0.648,6.647 -0.009,9.102 -0.17,9.581 l -2.251,3.07 3.848,1.327 c 0.01,0.003 0.947,0.35 0.614,2.213 -0.501,2.798 -3.304,4.562 -3.313,4.569 l -0.937,0.564 -0.358,1.03 c -0.045,0.131 -4.65,13.1 -13.229,13.1 v 2.688 -2.688 c -8.578,0 -13.184,-12.969 -13.228,-13.095 l -0.355,-1.036 -0.94,-0.562 c -0.027,-0.017 -2.816,-1.798 -3.312,-4.569 -0.253,-1.414 0.197,-1.988 0.648,-2.219 l 3.83,-0.705 -2.124,-3.409 C 23.824,27.32 23.07,24.385 24.216,17.25 c 0.783,-4.873 4.988,-5.6 7.426,-5.6 0.253,0 0.419,0.01 0.446,0.012 l 2.296,0.214 0.797,-2.164 c 0.907,-2.465 4.176,-3.02 5.251,-3.02 l 0,0 m 0,-3 c -1.854,0 -6.554,0.875 -8.066,4.982 0,0 -0.27,-0.025 -0.725,-0.025 -2.272,0 -9.183,0.625 -10.388,8.124 -1.497,9.318 0,12.312 0,12.312 0,0 -3.378,1.165 -2.589,5.577 0.759,4.239 4.725,6.614 4.725,6.614 0,0 5.197,15.12 16.064,15.12 -0.002,-0.006 -0.006,-0.108 -0.006,-0.297 0.002,0.19 0.004,0.296 0.006,0.297 10.869,0 16.065,-15.12 16.065,-15.12 0,0 3.967,-2.375 4.726,-6.614 0.789,-4.412 -2.589,-5.577 -2.589,-5.577 0,0 1.497,-2.042 0.58,-11.434 C 56.966,4.634 44.03,3.693 41.354,3.693 41.043,3.693 40.872,3.706 40.872,3.714 40.753,3.7 40.604,3.692 40.432,3.692 l 0,0 z m -0.979,52.705 0,0 0,0 0,0 z"
   id="path9178"
   inkscape:connector-curvature="0" />
		</g>
	</g>
	<path
   stroke-miterlimit="10"
   d="M 61.846,17.362 C 58.998,8.09 50.367,1.35 40.162,1.35 30.064,1.35 21.508,7.949 18.569,17.07"
   id="path9180"
   inkscape:connector-curvature="0"
   style="fill:none;stroke:#000000;stroke-width:2.70000005;stroke-linecap:round;stroke-miterlimit:10" />
	<path
   stroke-miterlimit="10"
   d="m 61.662,19.542 v 12.285 c 0,0 0.935,0.852 2.203,-0.629 0.946,-1.104 0.525,-9.145 0.316,-10.396 -0.316,-1.889 -2.519,-1.26 -2.519,-1.26 z"
   id="path9182"
   inkscape:connector-curvature="0"
   style="stroke:#000000;stroke-width:0.63;stroke-miterlimit:10" />
	<path
   stroke-miterlimit="10"
   d="m 43.927,45.568 c 0,0.96 -0.778,1.738 -1.737,1.738 h -3.614 c -0.96,0 -1.737,-0.778 -1.737,-1.738 l 0,0 c 0,-0.96 0.777,-1.737 1.737,-1.737 h 3.614 c 0.958,0 1.737,0.777 1.737,1.737 l 0,0 z"
   id="path9184"
   inkscape:connector-curvature="0"
   style="stroke:#000000;stroke-width:0.63;stroke-miterlimit:10" />
	<path
   stroke-miterlimit="10"
   d="m 62.291,33.716 c 0,3.856 -2.936,7.288 -7.516,9.509"
   id="path9186"
   inkscape:connector-curvature="0"
   style="fill:none;stroke:#000000;stroke-width:2.25;stroke-linecap:round;stroke-miterlimit:10" />
	<path
   stroke-miterlimit="10"
   d="m 54.023,43.572 c -3.257,1.43 -7.254,2.272 -11.576,2.272"
   id="path9188"
   inkscape:connector-curvature="0"
   style="fill:none;stroke:#000000;stroke-width:2.25;stroke-linecap:square;stroke-miterlimit:10" />
	<polygon
   points="35.166,77.951 33.75,70.774 33.702,70.774 32.238,77.951 "
   id="polygon9190" />
	<path
   d="m 79.184,65.723 c 0,0 -2.857,-3.573 -14.49,-8.663 -7.561,-3.306 -12.6,-3.622 -12.6,-3.622 0,0 -3.552,5.58 -12.463,5.809 -8.91,-0.229 -12.462,-5.809 -12.462,-5.809 0,0 -5.04,0.316 -12.601,3.622 -11.632,5.09 -14.49,8.663 -14.49,8.663 L 0,90.327 h 39.218 0.826 39.218 L 79.184,65.723 z M 38.118,85.127 c -1.176,0 -1.632,-0.48 -1.943,-2.089 L 35.67,80.494 h -3.96 l -0.648,3.12 c -0.216,1.081 -0.647,1.513 -1.68,1.513 -0.96,0 -1.512,-0.553 -1.512,-1.393 0,-0.288 0.071,-0.84 0.191,-1.32 l 3.072,-12.937 c 0.408,-1.753 0.84,-2.257 2.641,-2.257 1.632,0 2.231,0.504 2.64,2.257 l 3.049,12.841 c 0.12,0.528 0.24,1.056 0.24,1.32 0,1.081 -0.793,1.489 -1.585,1.489 z"
   id="path9192"
   inkscape:connector-curvature="0" />
	<path
   d="m 41.001,70.005 c -0.072,-0.336 -0.216,-1.032 -0.216,-1.224 0,-0.816 0.648,-1.561 1.656,-1.561 0.984,0 1.44,0.408 1.632,1.416 l 2.448,12.77 h 0.048 l 2.112,-12.481 c 0.168,-1.008 0.528,-1.704 1.608,-1.704 1.008,0 1.584,0.553 1.584,1.465 0,0.384 -0.072,0.792 -0.168,1.296 L 48.85,83.399 c -0.312,1.465 -0.96,1.729 -2.496,1.729 -1.68,0 -2.112,-0.695 -2.376,-1.849 L 41.001,70.005 z"
   id="path9194"
   inkscape:connector-curvature="0"
   style="fill:#ffffff" />
</g>
</svg>