<?xml version="1.0" encoding="UTF-8" standalone="no"?>
<!-- Generator: Adobe Illustrator 15.0.0, SVG Export Plug-In . SVG Version: 6.00 Build 0)  -->

<svg
   xmlns:dc="http://purl.org/dc/elements/1.1/"
   xmlns:cc="http://creativecommons.org/ns#"
   xmlns:rdf="http://www.w3.org/1999/02/22-rdf-syntax-ns#"
   xmlns:svg="http://www.w3.org/2000/svg"
   xmlns="http://www.w3.org/2000/svg"
   xmlns:sodipodi="http://sodipodi.sourceforge.net/DTD/sodipodi-0.dtd"
   xmlns:inkscape="http://www.inkscape.org/namespaces/inkscape"
   version="1.1"
   id="Layer_1"
   x="0px"
   y="0px"
   width="99.609px"
   height="86.864px"
   viewBox="0 0 99.609 86.864"
   enable-background="new 0 0 99.609 86.864"
   xml:space="preserve"
   inkscape:version="0.48.2 r9819"
   sodipodi:docname="banquetsupport.svg"><metadata
   id="metadata9793"><rdf:RDF><cc:Work
       rdf:about=""><dc:format>image/svg+xml</dc:format><dc:type
         rdf:resource="http://purl.org/dc/dcmitype/StillImage" /></cc:Work></rdf:RDF></metadata><defs
   id="defs9791" /><sodipodi:namedview
   pagecolor="#ffffff"
   bordercolor="#666666"
   borderopacity="1"
   objecttolerance="10"
   gridtolerance="10"
   guidetolerance="10"
   inkscape:pageopacity="0"
   inkscape:pageshadow="2"
   inkscape:window-width="1394"
   inkscape:window-height="829"
   id="namedview9789"
   showgrid="false"
   inkscape:zoom="2.7168908"
   inkscape:cx="49.804501"
   inkscape:cy="43.431999"
   inkscape:window-x="0"
   inkscape:window-y="0"
   inkscape:window-maximized="0"
   inkscape:current-layer="Layer_1" />
<g
   id="g9771"
   transform="matrix(0.76351194,0,0,0.83050847,11.778169,7.7294237)">
	<g
   id="g9773">
		<path
   d="m 40.432,3 c 0.043,0 0.08,0 0.104,0.002 l 3.336,0.375 V 3.189 c 3.93,0.562 10.568,2.749 11.379,11.062 0.648,6.647 -0.009,9.102 -0.17,9.581 l -2.251,3.07 3.849,1.327 c 0.009,0.003 0.946,0.35 0.613,2.213 -0.501,2.798 -3.304,4.562 -3.313,4.569 l -0.937,0.564 -0.357,1.03 c -0.046,0.131 -4.65,13.1 -13.23,13.1 v 2.688 -2.688 c -8.578,0 -13.184,-12.969 -13.228,-13.095 l -0.356,-1.036 -0.939,-0.562 c -0.027,-0.017 -2.816,-1.798 -3.312,-4.569 -0.253,-1.414 0.197,-1.988 0.648,-2.219 l 3.83,-0.705 -2.123,-3.409 c -0.15,-0.482 -0.904,-3.417 0.242,-10.552 0.783,-4.873 4.988,-5.6 7.426,-5.6 0.253,0 0.418,0.01 0.446,0.012 L 34.385,8.184 35.182,6.02 C 36.088,3.555 39.357,3 40.432,3 l 0,0 m 0,-3 c -1.854,0 -6.553,0.875 -8.066,4.982 0,0 -0.27,-0.025 -0.725,-0.025 -2.272,0 -9.183,0.625 -10.388,8.124 -1.497,9.318 0,12.312 0,12.312 0,0 -3.378,1.165 -2.589,5.577 0.759,4.239 4.725,6.614 4.725,6.614 0,0 5.197,15.12 16.064,15.12 -0.002,-0.006 -0.006,-0.108 -0.006,-0.297 0.002,0.19 0.004,0.296 0.006,0.297 10.869,0 16.065,-15.12 16.065,-15.12 0,0 3.967,-2.375 4.726,-6.614 0.789,-4.412 -2.589,-5.577 -2.589,-5.577 0,0 1.497,-2.042 0.58,-11.434 C 56.966,0.941 44.031,0 41.354,0 41.043,0 40.872,0.013 40.872,0.021 40.752,0.008 40.604,0 40.432,0 l 0,0 z m -0.979,52.705 0,0 0,0 0,0 z"
   id="path9775"
   inkscape:connector-curvature="0" />
	</g>
	<path
   d="m 48.275,80.365 c 0,-12.887 10.447,-23.334 23.334,-23.334 12.887,0 23.334,10.447 23.334,23.334"
   id="path9777"
   inkscape:connector-curvature="0" />
	<rect
   x="43.609001"
   y="82.698997"
   width="56"
   height="3.5"
   id="rect9779" />
	<g
   id="g9781">
		<path
   d="m 52.094,49.746 -9.53,20.256 -0.617,-10.085 1.636,-1.632 -3.885,-3.893 -3.893,3.885 2.106,2.111 -0.545,8.899 -10.197,-19.541 c 0,0 -5.04,0.316 -12.601,3.622 -11.632,5.09 -14.49,8.663 -14.49,8.663 L 0,86.634 l 39.943,0.23 v -7.001 l 5.333,-0.333 c 0,0 2.334,-21.667 21.667,-25.5 0,-0.499 -14.849,-4.284 -14.849,-4.284 z"
   id="path9783"
   inkscape:connector-curvature="0" />
	</g>
</g>
<path
   d="m 66.423483,32.686204 c 0,0 -2.057664,4.476442 -1.123125,7.732033 0.936065,3.254763 3.180027,3.254763 3.367087,6.306883 0.186297,3.051288 -1.184971,6.442254 -1.184971,6.442254 0,0 3.023508,-2.489034 3.11742,-6.374984 0.09468,-3.866016 -1.184971,-4.543712 -3.241872,-7.188881 -2.056901,-2.645169 -0.934539,-6.917305 -0.934539,-6.917305 z"
   id="path9785"
   inkscape:connector-curvature="0" />
<path
   d="m 63.593908,39.331933 c 0,0 -1.456781,3.171713 -0.794816,5.478864 0.662728,2.306323 2.253887,2.306323 2.386738,4.469798 0.131325,2.161813 -0.840626,4.564474 -0.840626,4.564474 0,0 2.143178,-1.76317 2.209604,-4.516306 0.06643,-2.739017 -0.840627,-3.219881 -2.297408,-5.093508 -1.458308,-1.874458 -0.663492,-4.903322 -0.663492,-4.903322 z"
   id="path9787"
   inkscape:connector-curvature="0" />
</svg>