<?xml version="1.0" encoding="UTF-8" standalone="no"?>
<!-- Created with Inkscape (http://www.inkscape.org/) -->
<svg
   xmlns:dc="http://purl.org/dc/elements/1.1/"
   xmlns:cc="http://web.resource.org/cc/"
   xmlns:rdf="http://www.w3.org/1999/02/22-rdf-syntax-ns#"
   xmlns:svg="http://www.w3.org/2000/svg"
   xmlns="http://www.w3.org/2000/svg"
   xmlns:xlink="http://www.w3.org/1999/xlink"
   xmlns:sodipodi="http://sodipodi.sourceforge.net/DTD/sodipodi-0.dtd"
   xmlns:inkscape="http://www.inkscape.org/namespaces/inkscape"
   width="129"
   height="34"
   id="svg2"
   sodipodi:version="0.32"
   inkscape:version="0.45.1"
   version="1.0"
   inkscape:output_extension="org.inkscape.output.svg.inkscape">
  <g
     inkscape:label="Layer 1"
     inkscape:groupmode="layer"
     id="layer1"
     transform="translate(-24.7593,-1000.4147)">
    <g
       id="g21724"
       transform="matrix(0.8531853,0,0,0.8531853,3.63504,151.86726)">
      <path
         style="fill:#4ac3ca;fill-rule:nonzero;stroke:none"
         d="M 140.31838,1023.9734 C 140.31838,1030.186 137.29347,1034.2006 130.02256,1034.2006 L 129.73978,1034.2006 C 127.20332,1034.2006 124.53832,1033.528 122.88447,1032.4611 C 120.00096,1030.6016 118.11575,1027.551 120.0181,1024.3247 C 121.77905,1021.3384 127.94026,1020.7856 128.85287,1025.9871 C 129.16993,1027.8081 130.14253,1027.5724 130.14253,1025.8929 L 130.14253,1013.5147 C 130.14253,1009.8129 132.4262,1007.5378 135.23688,1007.5378 C 138.05184,1007.5421 140.33123,1009.8214 140.33123,1012.6278 L 140.31838,1023.9734 z M 135.23688,1005.9396 C 138.02613,1005.9396 140.27553,1003.6817 140.27553,1000.8967 C 140.27553,998.11172 138.02613,995.85375 135.23688,995.85375 C 132.4562,995.85375 130.19823,998.11172 130.19823,1000.8967 C 130.19823,1003.6817 132.4562,1005.9396 135.23688,1005.9396"
         id="path27633" />
      <path
         style="fill:#4ac3ca;fill-rule:nonzero;stroke:none"
         d="M 153.01784,1033.2452 L 153.01784,1019.5303 C 153.01784,1018.5405 153.63481,1016.8738 154.78308,1016.424 C 155.95705,1015.9741 157.02391,1016.4968 158.30499,1016.9767 C 162.53815,1018.5877 165.82441,1016.454 166.33427,1013.6904 C 166.84842,1010.9269 165.02748,1008.2704 162.25537,1007.7563 C 158.86199,1007.1222 156.4712,1008.189 153.6948,1010.3313 L 153.68623,1010.3356 L 152.78219,1011.094 C 152.12665,1009.0374 150.20716,1007.5421 147.92777,1007.5421 C 145.11281,1007.5421 142.8377,1009.8214 142.8377,1012.6321 L 142.8377,1033.2452 L 153.01784,1033.2452"
         id="path27635" />
      <g
         transform="matrix(4.2845678,0,0,-4.2845678,-2151.2056,2942.8171)"
         clip-path="url(#id555)"
         id="g27637">
        <path
           style="fill:#4ac3ca;fill-rule:nonzero;stroke:none"
           d="M 539.825,445.621 C 540.476,445.621 541.002,446.148 541.002,446.798 C 541.002,447.448 540.476,447.974 539.825,447.974 C 539.176,447.974 538.648,447.448 538.648,446.798 C 538.648,446.148 539.176,445.621 539.825,445.621"
           id="path27639" />
        <path
           style="fill:#f67c13;fill-rule:nonzero;stroke:none"
           d="M 510.992,451.686 C 510.131,451.687 509.34,451.333 508.775,450.768 C 508.211,450.205 507.857,449.414 507.857,448.551 L 507.857,445.688 L 510.237,445.688 L 510.237,448.503 C 510.238,448.846 510.32,449.139 510.459,449.366 C 510.599,449.59 510.78,449.722 510.992,449.723 C 511.204,449.722 511.386,449.59 511.526,449.366 C 511.664,449.139 511.746,448.846 511.747,448.503 L 511.747,445.688 L 514.128,445.688 L 514.128,448.551 C 514.128,449.414 513.774,450.205 513.209,450.768 C 512.646,451.333 511.854,451.687 510.992,451.686"
           id="path27641" />
      </g>
      <path
         style="fill:#f67c13;fill-rule:nonzero;stroke:none"
         d="M 62.579182,1004.2386 C 63.603192,1003.2146 64.237312,1001.7964 64.237312,1000.2326 C 64.237312,998.66443 63.603192,997.25052 62.579182,996.22223 C 61.550882,995.19822 60.136982,994.5641 58.573112,994.5641 C 57.004962,994.5641 55.591052,995.19822 54.562752,996.22223 C 53.538742,997.25052 52.904632,998.66443 52.904632,1000.2326 C 52.904632,1001.7964 53.538742,1003.2146 54.562752,1004.2386 L 55.813852,1005.4897 C 57.904722,1007.5806 58.054682,1008.1333 56.066642,1010.1214 L 54.926942,1011.2611 C 54.001482,1012.1908 53.418772,1013.4805 53.418772,1014.9029 L 53.418772,1033.2366 L 63.723162,1033.2366 L 63.723162,1014.9029 C 63.723162,1013.4805 63.144742,1012.1908 62.219282,1011.2611 L 61.075302,1010.1214 C 59.087262,1008.1376 59.237222,1007.5806 61.328092,1005.4897 L 62.579182,1004.2386"
         id="path27643" />
      <path
         style="fill:#f67c13;fill-rule:nonzero;stroke:none"
         d="M 80.844292,1025.2545 C 80.240172,1026.3642 79.464662,1027.0197 78.556332,1027.024 C 77.648012,1027.0197 76.868212,1026.3642 76.268372,1025.2545 C 75.677102,1024.1319 75.321482,1022.6837 75.321482,1020.9827 C 75.321482,1019.2861 75.677102,1017.8336 76.268372,1016.711 C 76.868212,1015.6056 77.648012,1014.9458 78.556332,1014.9415 C 79.464662,1014.9458 80.240172,1015.6056 80.844292,1016.711 C 81.285602,1017.5465 81.589812,1018.5577 81.718342,1019.7188 L 91.928472,1019.7188 C 91.624272,1016.5225 90.197502,1013.6219 88.055222,1011.4881 C 85.638722,1009.0631 82.249632,1007.5506 78.556332,1007.5549 C 74.863042,1007.5506 71.473942,1009.0631 69.061732,1011.4881 C 66.636672,1013.9003 65.124212,1017.2894 65.128502,1020.9827 C 65.124212,1024.676 66.636672,1028.0651 69.061732,1030.4816 C 70.921232,1032.3411 74.156082,1034.4149 78.556332,1034.4149 C 81.859742,1034.4149 84.923202,1033.2023 87.262582,1031.21 C 88.967832,1029.7661 91.491442,1026.8569 91.928472,1022.2467 L 81.718342,1022.2467 C 81.589812,1023.4078 81.285602,1024.4232 80.844292,1025.2545"
         id="path27645" />
      <g
         transform="matrix(4.2845678,0,0,-4.2845678,-2151.2056,2942.8171)"
         clip-path="url(#id556)"
         id="g27647">
        <path
           style="fill:#f67c13;fill-rule:nonzero;stroke:none"
           d="M 529.833,446.104 L 529.771,446.321 L 528.467,448.292 L 529.369,449.93 C 529.703,450.496 529.516,451.225 528.949,451.559 C 528.383,451.893 527.653,451.705 527.319,451.138 L 526.242,449.211 L 526.242,450.496 C 526.242,451.153 525.709,451.686 525.052,451.686 C 524.396,451.686 523.862,451.153 523.862,450.496 L 523.862,445.687 L 526.242,445.687 L 526.242,447.571 L 527.498,445.688 L 529.418,445.688 C 529.647,445.688 529.833,445.875 529.833,446.104"
           id="path27649" />
        <path
           style="fill:#4ac3ca;fill-rule:nonzero;stroke:none"
           d="M 542.332,451.316 L 542.356,451.316 L 542.743,450.883 L 543.128,451.316 L 543.152,451.316 L 543.152,450.504 L 543.007,450.504 L 543.007,451.007 L 542.757,450.708 L 542.73,450.708 L 542.478,451.007 L 542.478,450.504 L 542.332,450.504 L 542.332,451.316 z M 541.773,451.179 L 541.531,451.179 L 541.531,451.303 L 542.16,451.303 L 542.16,451.179 L 541.918,451.179 L 541.918,450.504 L 541.773,450.504 L 541.773,451.179"
           id="path27651" />
      </g>
    </g>
  </g>
</svg>
