<?xml version="1.0" encoding="UTF-8" standalone="no"?>
<!-- Created with Inkscape (http://www.inkscape.org/) -->

<svg
   xmlns:dc="http://purl.org/dc/elements/1.1/"
   xmlns:cc="http://creativecommons.org/ns#"
   xmlns:rdf="http://www.w3.org/1999/02/22-rdf-syntax-ns#"
   xmlns:svg="http://www.w3.org/2000/svg"
   xmlns="http://www.w3.org/2000/svg"
   xmlns:sodipodi="http://sodipodi.sourceforge.net/DTD/sodipodi-0.dtd"
   xmlns:inkscape="http://www.inkscape.org/namespaces/inkscape"
   id="svg2985"
   version="1.1"
   inkscape:version="0.48.2 r9819"
   width="100.00002"
   height="44.171112"
   xml:space="preserve"
   sodipodi:docname="corporate_factsheet.pdf"><metadata
     id="metadata2991"><rdf:RDF><cc:Work
         rdf:about=""><dc:format>image/svg+xml</dc:format><dc:type
           rdf:resource="http://purl.org/dc/dcmitype/StillImage" /><dc:title></dc:title></cc:Work></rdf:RDF></metadata><defs
     id="defs2989"><clipPath
       clipPathUnits="userSpaceOnUse"
       id="clipPath2999"><path
         d="m 0,0 595.276,0 0,841.89 L 0,841.89 0,0 z"
         id="path3001"
         inkscape:connector-curvature="0" /></clipPath></defs><sodipodi:namedview
     pagecolor="#ffffff"
     bordercolor="#666666"
     borderopacity="1"
     objecttolerance="10"
     gridtolerance="10"
     guidetolerance="10"
     inkscape:pageopacity="0"
     inkscape:pageshadow="2"
     inkscape:window-width="1920"
     inkscape:window-height="1028"
     id="namedview2987"
     showgrid="false"
     fit-margin-left="0.1"
     fit-margin-bottom="0.1"
     fit-margin-top="0.1"
     fit-margin-right="0.1"
     inkscape:zoom="7.1762341"
     inkscape:cx="107.3454"
     inkscape:cy="16.751964"
     inkscape:window-x="-8"
     inkscape:window-y="-8"
     inkscape:window-maximized="1"
     inkscape:current-layer="g2997" /><g
     id="g2993"
     inkscape:groupmode="layer"
     inkscape:label="corporate_factsheet"
     transform="matrix(1.25,0,0,-1.25,-483.27578,992.93178)"><g
       id="g2995"><g
         id="g2997"
         clip-path="url(#clipPath2999)"
         transform="translate(-17.836653,14.269323)"><path
           d="m 467.09599,764.48567 7.33349,0 c -0.2266,1.91772 -1.65923,3.326 -3.52239,3.326 -2.09648,0 -3.35622,-1.29079 -3.8111,-3.326 m -11.23774,-6.22146 c 2.66214,0.0302 3.31929,2.69823 3.31929,4.647 0,2.46576 -1.08853,4.52531 -3.31929,4.55552 -2.44142,0.0319 -3.35706,-2.17537 -3.35706,-4.55552 0,-2.15187 0.8057,-4.647 3.35706,-4.647 m 28.51902,10.73334 c 0,2.42883 -1.9622,4.39019 -4.38935,4.39019 -1.2547,0 -2.38015,-0.52286 -3.17829,-1.36548 -1.85729,1.29078 -4.10736,2.04696 -6.54206,2.04696 -2.45904,0 -4.72674,-0.7738 -6.59662,-2.08977 -0.84178,0.78052 -1.96052,1.2547 -3.19591,1.2547 -0.91648,0 -1.77169,-0.2652 -2.49597,-0.71925 -1.71546,3.0608 -4.98607,5.12707 -8.74261,5.12707 -3.43595,0 -6.46149,-1.72217 -8.2743,-4.34655 -1.51236,1.55432 -3.6273,2.52031 -5.96969,2.52031 -1.54928,0 -2.99365,-0.42467 -4.23576,-1.16154 -0.0302,2.95672 -2.42883,5.34191 -5.39143,5.34191 -2.98191,0 -5.39731,-2.41624 -5.39731,-5.39143 l 0.0126,-0.20898 c -0.57825,0.0856 -1.16825,0.13513 -1.77084,0.13513 -1.75826,0 -3.41833,-0.38691 -4.91221,-1.07594 -0.84179,0.44901 -1.79519,0.7075 -2.81573,0.7075 -3.27649,0 -5.94451,-2.66215 -5.94451,-5.94535 0,-1.73979 0.75618,-3.29495 1.9429,-4.38347 -0.0311,-0.35669 -0.0495,-0.71925 -0.0495,-1.08181 0,-6.5043 5.27477,-11.77235 11.77907,-11.77235 2.52618,0 4.8694,0.79898 6.78628,2.15187 1.72805,-2.36169 4.51356,-3.90426 7.6608,-3.90426 0.0797,0 0.15359,0.006 0.2266,0.0126 0.9106,-2.5757 3.35118,-4.4204 6.23405,-4.4204 2.91477,0 5.39143,1.89338 6.26427,4.5186 1.00292,-1.9001 2.98778,-3.19088 5.28065,-3.19088 2.86524,0 5.25714,2.02262 5.83456,4.71498 0.41208,-0.0545 0.8359,-0.0923 1.26057,-0.0923 2.33651,0 4.45733,0.88626 6.07291,2.33064 1.83296,-1.24799 4.05197,-1.97983 6.43716,-1.97983 6.33896,0 11.47189,5.13965 11.47189,11.47777 0,0.78136 -0.0738,1.54928 -0.22744,2.287 1.67182,0.62105 2.86525,2.22489 2.86525,4.11239 m -5.98815,-5.11447 c 0,-1.43263 -0.43054,-1.80106 -1.83798,-1.80106 l -9.45515,0 c 0,-2.20727 1.43178,-3.81781 3.86649,-3.81781 3.15395,0 3.15395,2.06542 4.84423,2.06542 1.00292,0 1.72133,-0.86108 1.72133,-1.63488 0,-2.52031 -4.04441,-3.69444 -6.56556,-3.69444 -4.75779,0 -7.10689,2.6185 -7.81355,5.55676 -0.6328,-3.08009 -2.65039,-5.55676 -6.23405,-5.55676 -1.91772,0 -3.3495,0.7738 -4.12414,2.11998 l -0.0613,0 0,-5.58866 c 0,-1.37639 -0.83087,-2.09564 -2.0906,-2.09564 -1.26142,0 -2.09061,0.71925 -2.09061,2.09564 l 0,15.591 -4.70323,-13.32834 c -1.00124,-2.86441 -2.15188,-4.3583 -4.78884,-4.3583 -1.86233,0 -2.63781,0.91648 -2.63781,1.92443 0,1.11958 0.8057,1.69112 1.92527,1.69112 l 0.42971,0 c 0.54132,0 1.14307,0.0235 1.4578,1.31512 l -4.35326,12.41188 c -0.15359,0.449 -0.27025,0.78639 -0.35585,1.07006 -0.099,-0.12925 -0.20898,-0.24591 -0.33906,-0.38187 l -3.09185,-3.23956 4.35913,-5.84631 c 0.141,-0.19638 0.42971,-0.65798 0.42971,-1.34618 0,-1.06334 -0.86025,-2.03437 -1.97899,-2.03437 -1.03313,0 -1.58033,0.51531 -1.89338,0.97103 l -3.95377,5.59453 -1.46283,-1.29079 0,-3.185 c 0,-1.37136 -0.83004,-2.08977 -2.09061,-2.08977 -1.26645,0 -2.09648,0.71841 -2.09648,2.08977 l 0,1.5434 c -0.74946,-2.47163 -3.54673,-3.63317 -6.2458,-3.63317 -3.78088,0 -6.934,1.69028 -6.934,3.7557 0,0.91564 0.51615,1.74567 1.69028,1.74567 1.80693,0 1.97982,-2.58157 5.07167,-2.58157 1.48801,0 2.4347,0.66385 2.4347,1.51823 0,1.06334 -0.91647,1.23539 -2.40365,1.61054 l -2.46492,0.59672 c -2.4347,0.60175 -4.32808,1.61055 -4.32808,4.4204 0,3.40489 3.38139,4.67134 6.27602,4.67134 3.17829,0 6.39351,-1.26645 6.39351,-3.18416 0,-0.97691 -0.66386,-1.83212 -1.75155,-1.83212 -1.63572,0 -1.69111,1.91856 -4.32808,1.91856 -1.46284,0 -2.40953,-0.39949 -2.40953,-1.29079 0,-0.97186 0.94669,-1.20518 2.23748,-1.48885 l 1.74567,-0.40537 c 2.01088,-0.45488 4.34067,-1.24798 5.01628,-3.23955 l 0,13.07573 c 0,1.37051 0.83003,2.08976 2.09648,2.08976 1.26057,0 2.09061,-0.71925 2.09061,-2.08976 l 0,-9.51558 4.64112,5.15728 c 0.43055,0.46076 0.97775,0.80485 1.60468,0.80485 0.68232,0 1.40744,-0.44229 1.75825,-1.08181 0.33823,0.65211 1.01467,1.08181 1.80106,1.08181 1.11874,0 1.89338,-0.6328 2.14516,-1.57949 l 2.69907,-9.77491 0.0554,0 2.5522,9.48536 c 0.2887,1.06419 0.86024,1.86904 2.01003,1.86904 0.9895,0 1.56103,-0.49097 1.86317,-0.99536 0.25094,0.64539 0.81073,0.99536 1.71462,0.99536 1.23539,0 1.89337,-0.69407 1.89337,-1.97898 l 0,-0.65798 0.0613,0 c 0.68904,1.77588 2.37931,2.63696 4.40781,2.63696 2.98778,0 5.6558,-1.87491 6.37589,-5.79092 0.81073,3.54086 3.53414,5.79092 7.64737,5.79092 4.81402,0 7.56764,-3.4116 7.56764,-6.85426 m 1.29667,6.55297 0.81828,0 c 0,0 0.006,0 0.62693,-1.81281 l 0.58413,1.81281 0.81072,0 0,-2.63697 -0.54048,0 c 0,0 -0.006,0 -0.006,1.86904 l -0.64623,-1.86904 -0.44901,0 c 0,0 -0.006,0 -0.65126,1.85058 l 0,-1.85058 -0.5472,0 0,2.63697 z m -2.45905,-0.4851 0,0.4851 2.15775,0 0,-0.4851 -0.78639,0 0,-2.15187 -0.58413,0 0,2.15187 -0.78723,0 z"
           style="fill:#00AFF0;fill-opacity:1;fill-rule:nonzero;stroke:none"
           id="path3003"
           inkscape:connector-curvature="0"/></g></g></g></svg>