<?xml version="1.0" encoding="utf-8"?>
<!-- Generator: Adobe Illustrator 19.1.0, SVG Export Plug-In . SVG Version: 6.00 Build 0)  -->
<svg version="1.1" id="Layer_1" xmlns="http://www.w3.org/2000/svg" xmlns:xlink="http://www.w3.org/1999/xlink" x="0px" y="0px"
	 viewBox="0 0 285.4 65.5" style="enable-background:new 0 0 285.4 65.5;" xml:space="preserve">
<style type="text/css">
	.st0{fill:#FFFFFF;}
</style>
<path class="st0" d="M251.9,1.9C251.2,0.8,250,0,248.6,0c-1.4,0-2.6,0.7-3.2,1.9l-16.1,27.9c5.7,3.3,12.3,5.2,19.4,5.2
	c7.1,0,13.7-1.9,19.4-5.2L251.9,1.9z"/>
<path class="st0" d="M281.7,65c1.3,0,2.6-0.7,3.2-1.9c0.7-1.2,0.6-2.6,0-3.7l-16.1-27.9c-5.7,3.3-10.7,8.1-14.2,14.2
	c-3.5,6.1-5.2,12.8-5.2,19.4L281.7,65z"/>
<path class="st0" d="M215.3,65c-1.3,0-2.6-0.8-3.3-2c-0.7-1.2-0.6-2.6,0-3.7l16.2-27.9c5.7,3.3,10.7,8.1,14.2,14.2
	c3.5,6.1,5.2,12.8,5.1,19.4L215.3,65z"/>
<path class="st0" d="M16,22c-0.2,0.8-0.4,1.6-0.8,2.2c-0.4,0.7-0.9,1.2-1.6,1.6c-0.7,0.4-1.5,0.6-2.4,0.6c-0.9,0-1.7-0.2-2.4-0.6
	c-0.7-0.4-1.2-0.9-1.6-1.6c-0.4-0.7-0.7-1.4-0.9-2.2c-0.2-0.8-0.3-1.7-0.3-2.5c0-0.9,0.1-1.7,0.3-2.6c0.2-0.8,0.5-1.5,0.9-2.2
	c0.4-0.6,0.9-1.2,1.6-1.5c0.7-0.4,1.5-0.6,2.5-0.6c1,0,1.8,0.2,2.4,0.6c0.6,0.4,1.2,0.9,1.6,1.5c0.4,0.6,0.7,1.3,0.9,2.2
	c0.2,0.8,0.2,1.7,0.2,2.6C16.2,20.3,16.1,21.2,16,22 M16,11.4L16,11.4c-0.7-1.1-1.6-1.9-2.8-2.4C12,8.4,10.8,8.1,9.6,8.1
	c-1.6,0-3,0.3-4.2,0.9c-1.2,0.6-2.2,1.5-3,2.5c-0.8,1-1.4,2.2-1.8,3.6C0.2,16.5,0,17.9,0,19.3c0,1.5,0.2,2.9,0.6,4.3
	c0.4,1.4,1,2.6,1.8,3.7c0.8,1.1,1.8,1.9,3,2.5c1.2,0.6,2.6,0.9,4.3,0.9c1.4,0,2.7-0.3,3.8-0.8c1.1-0.5,2-1.4,2.7-2.5h0.1v2.8h5.6
	V0.5H16V11.4z"/>
<rect x="26.6" y="0.5" class="st0" width="5.9" height="4.9"/>
<rect x="26.6" y="8.7" class="st0" width="5.9" height="21.6"/>
<path class="st0" d="M68.1,9.9c-0.7-0.6-1.5-1.1-2.5-1.3c-1-0.3-2-0.4-3.2-0.4c-1.5,0-2.8,0.4-3.9,1.1c-1.1,0.7-2,1.6-2.6,2.5
	c-0.6-1.3-1.4-2.3-2.6-2.8c-1.1-0.5-2.4-0.8-3.7-0.8c-1.4,0-2.7,0.3-3.8,0.9c-1.1,0.6-2,1.5-2.8,2.6h-0.1V8.7h-5.6v21.6h5.9V17.8
	c0-1.1,0.2-1.9,0.5-2.6c0.3-0.7,0.7-1.2,1.1-1.5c0.4-0.3,0.9-0.6,1.3-0.7c0.5-0.1,0.8-0.2,1.1-0.2c0.9,0,1.7,0.2,2.1,0.5
	c0.5,0.3,0.8,0.7,1,1.3c0.2,0.5,0.3,1.1,0.4,1.7c0,0.6,0,1.3,0,1.9v12.1h5.9v-12c0-0.7,0-1.3,0.1-2c0.1-0.7,0.3-1.2,0.6-1.8
	c0.3-0.5,0.7-0.9,1.2-1.3c0.5-0.3,1.2-0.5,2-0.5c0.8,0,1.5,0.1,2,0.4c0.5,0.3,0.9,0.7,1.1,1.1c0.2,0.5,0.4,1,0.5,1.7
	c0.1,0.6,0.1,1.3,0.1,2v12.2h5.9V15.9c0-1.4-0.2-2.6-0.6-3.6C69.3,11.3,68.7,10.5,68.1,9.9"/>
<path class="st0" d="M79.8,17.2c0-0.4,0.1-0.9,0.3-1.4c0.2-0.5,0.4-1,0.8-1.5c0.4-0.5,0.9-0.9,1.5-1.2c0.6-0.3,1.4-0.5,2.4-0.5
	c1.4,0,2.5,0.4,3.2,1.2c0.7,0.8,1.2,1.9,1.5,3.4H79.8z M93,12.1c-0.9-1.2-2-2.1-3.4-2.9c-1.4-0.7-3-1.1-4.8-1.1
	c-1.6,0-3.1,0.3-4.5,0.9c-1.3,0.6-2.5,1.4-3.5,2.4c-1,1-1.7,2.2-2.3,3.6c-0.5,1.4-0.8,2.9-0.8,4.5c0,1.7,0.3,3.2,0.8,4.6
	c0.5,1.4,1.2,2.6,2.2,3.6c0.9,1,2.1,1.8,3.5,2.3c1.4,0.5,2.9,0.8,4.6,0.8c2.4,0,4.5-0.6,6.3-1.7c1.7-1.1,3-3,3.8-5.5h-5.2
	c-0.2,0.7-0.7,1.3-1.6,1.9c-0.9,0.6-1.9,0.9-3.1,0.9c-1.7,0-2.9-0.4-3.8-1.3c-0.9-0.9-1.4-2.3-1.5-4.2h15.6c0.1-1.7,0-3.3-0.4-4.8
	C94.5,14.6,93.9,13.3,93,12.1"/>
<path class="st0" d="M119.1,30.3V17c0-1.3-0.1-2.6-0.4-3.6c-0.2-1.1-0.6-2-1.2-2.8c-0.6-0.8-1.4-1.4-2.4-1.8c-1-0.4-2.3-0.6-3.9-0.6
	c-1.3,0-2.5,0.3-3.7,0.9c-1.2,0.6-2.2,1.5-2.9,2.7h-0.1v-3h-5.6v21.6h5.9V19c0-2.2,0.4-3.8,1.1-4.7c0.7-1,1.9-1.4,3.5-1.4
	c1.4,0,2.4,0.4,3,1.3c0.6,0.9,0.8,2.2,0.8,4v12.2H119.1z"/>
<path class="st0" d="M142.5,23.4c0-1-0.2-1.8-0.6-2.5c-0.4-0.7-0.9-1.2-1.5-1.7c-0.6-0.5-1.4-0.8-2.2-1.1c-0.8-0.3-1.7-0.5-2.5-0.7
	c-0.8-0.2-1.7-0.4-2.5-0.5c-0.8-0.2-1.5-0.4-2.1-0.6c-0.6-0.2-1.1-0.5-1.5-0.8c-0.4-0.3-0.6-0.8-0.6-1.3c0-0.4,0.1-0.8,0.3-1.1
	c0.2-0.3,0.5-0.5,0.8-0.6c0.3-0.1,0.7-0.2,1.1-0.3c0.4,0,0.7-0.1,1.1-0.1c1.1,0,2,0.2,2.7,0.6c0.8,0.4,1.2,1.2,1.3,2.3h5.6
	c-0.1-1.3-0.5-2.4-1-3.3c-0.6-0.9-1.3-1.6-2.1-2.1c-0.9-0.5-1.8-0.9-2.9-1.1c-1.1-0.2-2.2-0.3-3.4-0.3c-1.2,0-2.3,0.1-3.4,0.3
	c-1.1,0.2-2.1,0.6-3,1.1c-0.9,0.5-1.6,1.2-2.1,2.1c-0.5,0.9-0.8,2-0.8,3.4c0,0.9,0.2,1.7,0.6,2.4c0.4,0.7,0.9,1.2,1.5,1.6
	c0.6,0.4,1.4,0.8,2.2,1c0.8,0.3,1.7,0.5,2.5,0.7c2.1,0.4,3.8,0.9,4.9,1.3c1.2,0.4,1.8,1.1,1.8,2c0,0.5-0.1,1-0.4,1.3
	c-0.2,0.3-0.6,0.6-0.9,0.8c-0.4,0.2-0.8,0.4-1.2,0.5c-0.5,0.1-0.9,0.1-1.3,0.1c-0.6,0-1.1-0.1-1.7-0.2c-0.5-0.1-1-0.4-1.4-0.6
	c-0.4-0.3-0.8-0.7-1-1.1c-0.3-0.5-0.4-1-0.4-1.6h-5.6c0.1,1.4,0.4,2.6,1,3.6c0.6,1,1.4,1.7,2.3,2.3c0.9,0.6,2,1,3.2,1.2
	c1.2,0.2,2.4,0.4,3.7,0.4c1.2,0,2.4-0.1,3.6-0.4c1.2-0.2,2.2-0.6,3.1-1.2c0.9-0.6,1.7-1.4,2.2-2.3C142.2,26,142.5,24.8,142.5,23.4"
	/>
<rect x="146.1" y="0.5" class="st0" width="5.9" height="4.9"/>
<rect x="146.1" y="8.7" class="st0" width="5.9" height="21.6"/>
<path class="st0" d="M161.4,17c0.2-0.8,0.5-1.6,0.9-2.2c0.4-0.6,0.9-1.2,1.6-1.6c0.7-0.4,1.5-0.6,2.5-0.6c1,0,1.8,0.2,2.5,0.6
	c0.7,0.4,1.2,0.9,1.6,1.6c0.4,0.6,0.7,1.4,0.9,2.2c0.2,0.8,0.2,1.7,0.2,2.5c0,0.9-0.1,1.7-0.2,2.5c-0.2,0.8-0.5,1.6-0.9,2.2
	c-0.4,0.7-0.9,1.2-1.6,1.6c-0.7,0.4-1.5,0.6-2.5,0.6c-1,0-1.8-0.2-2.5-0.6c-0.7-0.4-1.2-0.9-1.6-1.6c-0.4-0.7-0.7-1.4-0.9-2.2
	c-0.2-0.8-0.2-1.7-0.2-2.5C161.1,18.7,161.2,17.8,161.4,17 M158.3,27.8c1,1,2.1,1.7,3.5,2.3c1.4,0.5,2.9,0.8,4.6,0.8
	c1.7,0,3.2-0.3,4.6-0.8c1.4-0.5,2.5-1.3,3.5-2.3c1-1,1.7-2.2,2.2-3.6c0.5-1.4,0.8-2.9,0.8-4.7c0-1.7-0.3-3.3-0.8-4.7
	c-0.5-1.4-1.3-2.6-2.2-3.6c-1-1-2.1-1.8-3.5-2.3c-1.4-0.5-2.9-0.8-4.6-0.8c-1.7,0-3.2,0.3-4.6,0.8c-1.4,0.5-2.5,1.3-3.5,2.3
	c-1,1-1.7,2.2-2.2,3.6c-0.5,1.4-0.8,3-0.8,4.7c0,1.7,0.3,3.3,0.8,4.7C156.5,25.6,157.3,26.8,158.3,27.8"/>
<path class="st0" d="M186.4,19c0-2.2,0.4-3.8,1.1-4.7c0.7-1,1.9-1.4,3.5-1.4c1.4,0,2.4,0.4,3,1.3c0.6,0.9,0.8,2.2,0.8,4v12.2h5.9V17
	c0-1.3-0.1-2.6-0.4-3.6c-0.2-1.1-0.6-2-1.2-2.8c-0.6-0.8-1.4-1.4-2.4-1.8c-1-0.4-2.3-0.6-3.9-0.6c-1.3,0-2.5,0.3-3.7,0.9
	c-1.2,0.6-2.2,1.5-2.9,2.7h-0.1v-3h-5.6v21.6h5.9V19z"/>
<path class="st0" d="M131.6,56.7c-0.2,0.8-0.4,1.6-0.8,2.2c-0.4,0.7-0.9,1.2-1.6,1.6c-0.7,0.4-1.5,0.6-2.4,0.6
	c-0.9,0-1.7-0.2-2.4-0.6c-0.7-0.4-1.2-0.9-1.6-1.6c-0.4-0.7-0.7-1.4-0.9-2.2c-0.2-0.8-0.3-1.7-0.3-2.5c0-0.9,0.1-1.7,0.3-2.6
	c0.2-0.8,0.5-1.5,0.9-2.2c0.4-0.6,0.9-1.2,1.6-1.5c0.7-0.4,1.5-0.6,2.5-0.6c1,0,1.8,0.2,2.4,0.6c0.6,0.4,1.2,0.9,1.6,1.5
	c0.4,0.6,0.7,1.3,0.9,2.2c0.2,0.8,0.2,1.7,0.2,2.6C131.8,55,131.7,55.9,131.6,56.7 M131.6,46.1L131.6,46.1c-0.7-1.1-1.6-1.9-2.8-2.4
	c-1.2-0.5-2.4-0.8-3.6-0.8c-1.6,0-3,0.3-4.2,0.9c-1.2,0.6-2.2,1.5-3,2.5c-0.8,1-1.4,2.2-1.8,3.6c-0.4,1.3-0.6,2.7-0.6,4.2
	c0,1.5,0.2,2.9,0.6,4.3c0.4,1.4,1,2.6,1.8,3.7c0.8,1.1,1.8,1.9,3,2.5c1.2,0.6,2.6,0.9,4.3,0.9c1.4,0,2.7-0.3,3.8-0.8
	c1.1-0.5,2-1.4,2.7-2.5h0.1V65h5.6V35.2h-5.9V46.1z"/>
<path class="st0" d="M155.4,56.6c0,0.3,0,0.8-0.1,1.3c-0.1,0.6-0.3,1.1-0.6,1.6c-0.3,0.5-0.8,1-1.4,1.4c-0.6,0.4-1.5,0.6-2.7,0.6
	c-0.5,0-0.9,0-1.4-0.1c-0.4-0.1-0.8-0.2-1.2-0.4c-0.3-0.2-0.6-0.5-0.8-0.9c-0.2-0.4-0.3-0.8-0.3-1.3c0-0.6,0.1-1,0.3-1.4
	c0.2-0.4,0.5-0.7,0.8-0.9c0.3-0.2,0.7-0.4,1.1-0.6c0.4-0.1,0.9-0.2,1.3-0.3c0.5-0.1,0.9-0.2,1.4-0.2c0.5-0.1,0.9-0.1,1.4-0.2
	c0.4-0.1,0.8-0.2,1.2-0.3c0.4-0.1,0.7-0.3,0.9-0.5V56.6z M161.3,60.2V49c0-1.3-0.3-2.4-0.9-3.1c-0.6-0.8-1.3-1.4-2.3-1.9
	c-0.9-0.4-1.9-0.7-3-0.9c-1.1-0.2-2.2-0.2-3.3-0.2c-1.2,0-2.4,0.1-3.6,0.4c-1.2,0.2-2.2,0.6-3.2,1.2c-0.9,0.6-1.7,1.3-2.3,2.2
	c-0.6,0.9-1,2.1-1,3.5h5.9c0.1-1.2,0.5-2,1.2-2.5c0.7-0.5,1.6-0.7,2.8-0.7c0.5,0,1,0,1.5,0.1c0.5,0.1,0.9,0.2,1.2,0.4
	c0.3,0.2,0.6,0.5,0.8,0.9c0.2,0.4,0.3,0.9,0.3,1.5c0,0.6-0.2,1.1-0.5,1.4c-0.4,0.3-0.9,0.6-1.6,0.7c-0.7,0.2-1.4,0.3-2.3,0.4
	c-0.9,0.1-1.7,0.2-2.6,0.3c-0.9,0.1-1.8,0.3-2.6,0.6c-0.9,0.2-1.7,0.6-2.3,1.1c-0.7,0.5-1.2,1.1-1.7,1.9c-0.4,0.8-0.6,1.8-0.6,3
	c0,1.1,0.2,2.1,0.6,2.9c0.4,0.8,0.9,1.5,1.6,2c0.7,0.5,1.4,0.9,2.3,1.2c0.9,0.2,1.8,0.4,2.9,0.4c1.3,0,2.6-0.2,3.9-0.6
	c1.3-0.4,2.4-1.1,3.3-2c0,0.4,0.1,0.7,0.1,1.1c0.1,0.3,0.2,0.7,0.3,1l6,0c-0.3-0.4-0.5-1.1-0.6-2C161.4,62.1,161.3,61.2,161.3,60.2"
	/>
<path class="st0" d="M173.4,37h-5.9v6.4h-3.6v4h3.6v12.7c0,1.1,0.2,2,0.5,2.6c0.4,0.7,0.9,1.2,1.5,1.5c0.6,0.4,1.3,0.6,2.2,0.7
	c0.8,0.1,1.7,0.2,2.6,0.2c0.6,0,1.2,0,1.8,0c0.6,0,1.2-0.1,1.7-0.2v-4.6c-0.3,0.1-0.6,0.1-0.9,0.1c-0.3,0-0.6,0-1,0
	c-1,0-1.7-0.2-2-0.5c-0.3-0.3-0.5-1-0.5-2V47.4h4.3v-4h-4.3V37z"/>
<path class="st0" d="M194.8,56.6c0,0.3,0,0.8-0.1,1.3c-0.1,0.6-0.3,1.1-0.6,1.6c-0.3,0.5-0.8,1-1.4,1.4c-0.6,0.4-1.5,0.6-2.7,0.6
	c-0.5,0-0.9,0-1.4-0.1c-0.4-0.1-0.8-0.2-1.2-0.4c-0.3-0.2-0.6-0.5-0.8-0.9c-0.2-0.4-0.3-0.8-0.3-1.3c0-0.6,0.1-1,0.3-1.4
	c0.2-0.4,0.5-0.7,0.8-0.9c0.3-0.2,0.7-0.4,1.1-0.6c0.4-0.1,0.9-0.2,1.3-0.3c0.5-0.1,0.9-0.2,1.4-0.2c0.5-0.1,0.9-0.1,1.4-0.2
	c0.4-0.1,0.8-0.2,1.2-0.3c0.4-0.1,0.7-0.3,0.9-0.5V56.6z M200.9,63c-0.1-0.9-0.2-1.8-0.2-2.8V49c0-1.3-0.3-2.4-0.9-3.1
	c-0.6-0.8-1.3-1.4-2.3-1.9c-0.9-0.4-1.9-0.7-3-0.9c-1.1-0.2-2.2-0.2-3.3-0.2c-1.2,0-2.4,0.1-3.6,0.4c-1.2,0.2-2.2,0.6-3.2,1.2
	c-0.9,0.6-1.7,1.3-2.3,2.2c-0.6,0.9-1,2.1-1,3.5h5.9c0.1-1.2,0.5-2,1.2-2.5c0.7-0.5,1.6-0.7,2.8-0.7c0.5,0,1,0,1.5,0.1
	c0.5,0.1,0.9,0.2,1.2,0.4c0.3,0.2,0.6,0.5,0.8,0.9c0.2,0.4,0.3,0.9,0.3,1.5c0,0.6-0.2,1.1-0.5,1.4c-0.4,0.3-0.9,0.6-1.6,0.7
	c-0.7,0.2-1.4,0.3-2.3,0.4c-0.9,0.1-1.7,0.2-2.6,0.3c-0.9,0.1-1.8,0.3-2.6,0.6c-0.9,0.2-1.7,0.6-2.3,1.1c-0.7,0.5-1.2,1.1-1.7,1.9
	c-0.4,0.8-0.6,1.8-0.6,3c0,1.1,0.2,2.1,0.6,2.9c0.4,0.8,0.9,1.5,1.6,2c0.7,0.5,1.4,0.9,2.3,1.2c0.9,0.2,1.8,0.4,2.9,0.4
	c1.3,0,2.6-0.2,3.9-0.6c1.3-0.4,2.4-1.1,3.3-2c0,0.4,0.1,0.7,0.1,1.1c0.1,0.3,0.2,0.7,0.3,1l6,0C201.2,64.5,201,63.9,200.9,63"/>
</svg>
